<svg viewBox="0 0 531 389.41" xmlns="http://www.w3.org/2000/svg"><g fill="#0c2340"><path d="m501 .13-277.17 24.16-12.42 29 269.78-20c9-.67 15.53 5.9 14.57 14.68l-30.84 281.42a16.74 16.74 0 0 1 -17.5 14.52l-343.52-18.7-16.37 25.2 372.34 25.06c17.66 1.19 33.72-11.75 35.63-28.94l35.31-317c1.98-17.83-11.48-31-29.81-29.4z"/><path d="m31.79 321.28c-5.91-.32-10.2-6.21-9.61-13.16l19.5-229.44c.61-7.13 6-13.28 12-13.73l54.08-4 6.73-27.12-69.49 6.05c-12 1-22.55 13.35-23.74 27.49l-21.15 252.18c-1.11 13.73 7.24 25.45 18.89 26.25l25.91 1.75 5.38-25.26z"/><path d="m368.8 71.2-13.8.85a6.28 6.28 0 0 0 -5 4l-19.37 56.08-15.63-56.13a3.55 3.55 0 0 0 -4-2.79l-2.58.17a5.13 5.13 0 0 0 -4.54 3.21l-26.26 57.41-8-53.25a3.88 3.88 0 0 0 -4-3.25l-12.63.78a5.1 5.1 0 0 0 -3.8 2 5.4 5.4 0 0 0 -1 4.27l16.33 97.29a4 4 0 0 0 3.95 3.49h2.22a5 5 0 0 0 4.4-2.93l29.82-64 17.89 63.28a3.86 3.86 0 0 0 4 3h2.33a5.58 5.58 0 0 0 4.91-3.66l38.7-103.66a4.86 4.86 0 0 0 -.21-4.45 4.07 4.07 0 0 0 -3.73-1.71z"/><path d="m380.62 182.41 63.85-.85a6 6 0 0 0 5.8-5.23l1.41-13a4.48 4.48 0 0 0 -4.71-5.05l-44.78 1 2.42-23.06 37-1.21a6.2 6.2 0 0 0 5.8-5.34l1.42-13.21a4.47 4.47 0 0 0 -4.7-5l-37.13 1.64 2.26-21.45 45.09-2.33a6.41 6.41 0 0 0 5.86-5.49l1.42-13.15a4.32 4.32 0 0 0 -4.75-4.9l-64.58 4a6.18 6.18 0 0 0 -5.54 5.37l-10.58 102.33a4.34 4.34 0 0 0 4.44 4.93z"/><path d="m306.68 199.22-56.78.36a5.2 5.2 0 0 0 -4.87 4.74l-9.22 95.37a4.24 4.24 0 0 0 3.91 4.84l12.46.52a5 5 0 0 0 4.89-4.52l3.4-34.72 32.51.77a5.32 5.32 0 0 0 5.09-4.69l1.21-12.13a4.38 4.38 0 0 0 -4.13-4.88l-32.58-.45 2.3-23.47 39.62.14a5.37 5.37 0 0 0 5.15-4.83l1.22-12.27a4.2 4.2 0 0 0 -4.18-4.78z"/><path d="m343 199-13.66.09a5.63 5.63 0 0 0 -5.23 4.91l-10 98.79a4.56 4.56 0 0 0 4.2 5l13.52.56a5.35 5.35 0 0 0 5.26-4.68l10.22-99.8a4.4 4.4 0 0 0 -4.31-4.87z"/><path d="m443.6 305.34-26.94-51.49 36.56-47.85a5 5 0 0 0 .77-5.13 4.77 4.77 0 0 0 -4.56-2.56l-18.62.12a5.72 5.72 0 0 0 -4.64 2.45l-21.9 30.22-14.95-30-.1-.17a4.43 4.43 0 0 0 -3.89-2.2l-17.64.11a5.71 5.71 0 0 0 -4.76 2.52 4.93 4.93 0 0 0 -.29 5l24.8 47-35.88 48.48a4.9 4.9 0 0 0 -.69 4.83 4.75 4.75 0 0 0 4.34 2.68l16.22.68a5.85 5.85 0 0 0 4.57-2.18l23.54-32 17.18 33.45a4.88 4.88 0 0 0 4.31 2.75l17.17.72a5.83 5.83 0 0 0 5-2.26 5.08 5.08 0 0 0 .4-5.17z"/></g><path d="m206.72 29.3-58.61 133c-.79 1.79.2 3.69 1.91 3.65l16.52-.38c1.9 0 2.87 2.22 1.74 4.06l-86.52 141.62c-1.5 2.46-4.75.82-4-2l30-112.68c.44-1.64-.52-3.16-2-3.15l-17.44.17c-1.4 0-2.34-1.42-2-3l34.68-151.13c.76-3.32-1.18-6.11-4.08-5.85l-17.3 1.51-38 181.61a2.26 2.26 0 0 0 1.94 3l17.21.06a2.29 2.29 0 0 1 2 3l-35 163.57c-.58 2.71 2.45 4.3 3.89 2l156.67-247.27c1.2-1.9.2-4.22-1.78-4.15l-17.17.61c-1.74.06-2.77-1.81-2-3.64l47.14-110.55-22.71 2a6.46 6.46 0 0 0 -5.09 3.94z" fill="#00bbdc"/></svg>