<svg enable-background="new 0 0 500 500" viewBox="0 0 500 500" xmlns="http://www.w3.org/2000/svg"><path d="m45.4 191.3c-1.3 0-2.4-1.1-2.4-2.4v-28.5c0-1.3 1.1-2.4 2.4-2.4 1.3 0 2.4 1.1 2.4 2.4v28.6c0 1.2-1.1 2.3-2.4 2.3z" fill="#2b2b2d"/><path d="m69.1 490.3 164.2 1.7c12 0 32.7-13.2 32.7-25v-430.4c0-11.9-12.9-28.5-24.9-28.5h-167.2c-12 0-28.2 11.2-28.2 31.1s0 422.6 0 422.6c0 11.9 11.5 28.5 23.4 28.5z" fill="#c5c9ce"/><path d="m58.5 478.3s-1.7-9.2-1.9-16.5-1.2-414.9-1.3-422.2c-.2-7.3 5.4-22 5.4-22-2.2 0-12.1 9.9-12.1 20.7s0 414 0 422.2 7.7 17.8 9.9 17.8z" fill="#5b5f65" opacity=".44"/><path d="m237.4 12.1s-3.3-.3-5.9-.3-148.5-.1-151.2-.1c-2.6 0-7.9.9-7.9.9 0-.4 3.5-2.1 7.4-2.1s148.2-.1 151.2-.1 6.4 1.4 6.4 1.7z" fill="#5b5f65" opacity=".44"/><path d="m167.4 106.3h-19c-5.7 0-10.4-4.7-10.4-10.4v-20.3c0-5.7 4.7-10.4 10.4-10.4h19c5.7 0 10.4 4.7 10.4 10.4v20.3c0 5.7-4.7 10.4-10.4 10.4z" stroke="#231f20" stroke-miterlimit="10" stroke-width="4"/><path d="m167.2 106.1h-19c-5.7 0-10.4-4.7-10.4-10.4v-20.3c0-5.7 4.7-10.4 10.4-10.4h19c5.7 0 10.4 4.7 10.4 10.4v20.3c-.1 5.7-4.7 10.4-10.4 10.4z" fill="none" stroke="#e2e0e1" stroke-miterlimit="10" stroke-width=".5"/><circle cx="157.9" cy="86" r="11.7" stroke="#231f20" stroke-miterlimit="10" stroke-width="7"/><circle cx="157.9" cy="86" fill="none" r="11.7" stroke="#fff" stroke-miterlimit="10" stroke-width=".25"/><circle cx="157.9" cy="86" fill="#212121" r="9.1"/><circle cx="157.9" cy="86" fill="#292251" r="4.7"/><ellipse cx="159.8" cy="88.9" fill="#fff" opacity=".3" rx="2.4" ry="1.9" transform="matrix(.7416 -.6708 .6708 .7416 -18.324 130.1832)"/><ellipse cx="155.1" cy="84.1" fill="#fff" opacity=".3" rx="2.4" ry="1.9" transform="matrix(.7416 -.6708 .6708 .7416 -16.3655 125.771)"/><path d="m201.9 105.4h-7.9c-3.5 0-6.5-2.9-6.5-6.5v-24.6c0-3.5 2.9-6.5 6.5-6.5h7.9c3.5 0 6.5 2.9 6.5 6.5v24.6c0 3.6-2.9 6.5-6.5 6.5z" stroke="#231f20" stroke-miterlimit="10" stroke-width="4"/><path d="m201.9 105.4h-7.9c-3.5 0-6.5-2.9-6.5-6.5v-24.6c0-3.5 2.9-6.5 6.5-6.5h7.9c3.5 0 6.5 2.9 6.5 6.5v24.6c0 3.6-2.9 6.5-6.5 6.5z" fill="none" stroke="#fff" stroke-miterlimit="10" stroke-width=".25"/><path d="m121.6 104.1h-2.2c-2.8 0-5.2-2.3-5.2-5.2v-24.6c0-2.8 2.3-5.2 5.2-5.2h2.2c2.8 0 5.2 2.3 5.2 5.2v24.6c0 2.9-2.3 5.2-5.2 5.2z" fill="#1c1c1c"/><path d="m120.8 81.2h-.9c-2.8 0-5.2-2.3-5.2-5.2v-.9c0-2.8 2.3-5.2 5.2-5.2h.9c2.8 0 5.2 2.3 5.2 5.2v.9c0 2.9-2.4 5.2-5.2 5.2z" fill="#f7dbc6"/><ellipse cx="120.3" cy="75.2" fill="#e6b659" rx="2.6" ry="3"/><path d="m121.9 75.6h.6s-.3 0-.6 0c-.4 0-.6 0-.6 0s.2 0 .6 0z" fill="#1c1c1c"/><path d="m122.1 102.2h-3.6c-1.4 0-2.6-1.2-2.6-2.6v-10.6c0-1.4 1.2-2.6 2.6-2.6h3.6c1.4 0 2.6 1.2 2.6 2.6v10.6c0 1.5-1.2 2.6-2.6 2.6z" fill="#352a22" stroke="#000" stroke-miterlimit="10"/><g fill="#fff"><path d="m180 178.5-.1-8h2.6v10.2h-3.7l-2.5-8.4h-.1l.1 8.4h-2.5v-10.2h3.8z"/><path d="m133.8 171.4-1.5 9.3h-2.7l1.9-10.2h4.6l1.9 10.2h-2.8z"/><path d="m145.8 178.3 1.2-7.8h4.2l.2 10.2h-2.5l-.1-9.2-1.8 9.2h-2.6l-1.7-9.2-.1 9.2h-2.6l.2-10.2h4.2l1.3 7.8z"/><path d="m125.2 177.9c.1.3.1.6 0 .8-.1.3-.3.7-1 .7-.6 0-1-.4-1-.9v-1h-2.8v.8c0 2.3 1.8 3 3.8 3 1.9 0 3.4-.6 3.6-2.3.1-.9 0-1.5 0-1.7-.4-2.2-4.3-2.8-4.6-4 0-.2 0-.4 0-.6.1-.3.3-.7.9-.7s.9.4.9.9v.6h2.5v-.7c0-2.2-2-2.6-3.5-2.6-1.8 0-3.3.6-3.6 2.3-.1.5-.1.9 0 1.4.7 2 4.3 2.6 4.8 4z"/><path d="m158.7 177.9c.1.3.1.6 0 .7-.1.3-.3.7-1 .7-.6 0-1-.4-1-.9v-1h-2.7v.8c0 2.3 1.8 3 3.7 3s3.4-.6 3.6-2.3c.1-.9 0-1.5 0-1.7-.4-2.1-4.3-2.8-4.6-4 0-.2 0-.4 0-.5.1-.3.3-.7.9-.7s.9.3.9.9v.6h2.5v-.7c0-2.2-2-2.5-3.5-2.5-1.8 0-3.3.6-3.5 2.2-.1.5-.1.9 0 1.4.5 2 4.2 2.6 4.7 4z"/><path d="m167.3 179.2c.7 0 .9-.5 1-.7 0-.1 0-.3 0-.4v-7.6h2.6v7.4.7c-.2 1.9-1.7 2.5-3.6 2.5s-3.4-.6-3.6-2.5c0-.1 0-.5 0-.7v-7.4h2.6v7.6.4c.1.2.3.7 1 .7z"/><path d="m188.8 179.1c.7 0 1-.5 1-.7 0-.1 0-.3 0-.4v-1.5h-1v-1.5h3.6v2.8.7c-.2 1.9-1.8 2.5-3.6 2.5s-3.5-.6-3.6-2.5c0-.3 0-.5 0-.7v-4.3c0-.2 0-.5 0-.7.2-1.9 1.8-2.5 3.6-2.5s3.4.6 3.6 2.5v.7.3h-2.6v-.6s0-.3 0-.4c0-.2-.3-.7-1-.7s-.9.5-1 .7v.5 4.7.4c0 .2.2.7 1 .7z"/></g><path d="m230.9 218.3c-1.3 0-2.4-1.1-2.4-2.4v-28.5c0-1.3 1.1-2.4 2.4-2.4 1.3 0 2.4 1.1 2.4 2.4v28.5c-.1 1.3-1.1 2.4-2.4 2.4z" fill="#2b2b2d"/><path d="m231.1 157.7c-1.3 0-2.4-1.1-2.4-2.4v-63.5c0-1.3 1.1-2.4 2.4-2.4 1.3 0 2.4 1.1 2.4 2.4v63.5c0 1.3-1.1 2.4-2.4 2.4z" fill="#2b2b2d"/><path d="m452.1 190.9c-1.3 0-2.4-1.1-2.4-2.4v-28.5c0-1.3 1.1-2.4 2.4-2.4 1.3 0 2.4 1.1 2.4 2.4v28.5c0 1.3-1.1 2.4-2.4 2.4z" fill="#2b2b2d"/><path d="m428.7 490.3-164.3 1.7c-12 0-32.7-13.2-32.7-25v-430.4c0-11.9 12.9-28.5 24.9-28.5h167.3c12 0 28.2 11.2 28.2 31.1s0 422.6 0 422.6c0 11.9-11.5 28.5-23.4 28.5z" fill="#050505" stroke="#c5c9ce" stroke-miterlimit="10" stroke-width="5"/><path d="m428.8 468.2-173.9.4c-11.5 0-17.4-10.7-17.4-21.4v-390.8c0-10.7 4.5-22 16-22l176.1-.5c11.5 0 19.9 14.4 19.9 25.1l-.2 383.5c0 10.7-9 25.7-20.5 25.7z" fill="#6a6a6b" stroke="#000" stroke-miterlimit="10"/><path d="m237.4 252.4c0-69.5-.1-188-.1-197s5-16.2 5-16.2l201.2 420.3s-6.7 8.6-14.7 8.8-167.3.2-175.1.2-15.5-9.1-16-19.4c-.4-10.4-.3-127.1-.3-196.7z" fill="#4b4b4c"/><path d="m439.7 479.1s1.7-9.2 1.9-16.5 1.2-414.9 1.3-422.2c.2-7.3-5.4-22-5.4-22 2.2 0 12.1 9.9 12.1 20.7s0 414 0 422.2c0 8.3-7.7 17.8-9.9 17.8z" fill="#b7b8ba" opacity=".3"/><path d="m246.7 481.7s-1.7-9.2-1.9-16.5-1.2-414.9-1.3-422.2c-.2-7.3 5.4-22 5.4-22-2.2 0-12.1 9.9-12.1 20.7s0 414 0 422.2c.1 8.2 7.7 17.8 9.9 17.8z" fill="#e0e0e0" opacity=".3"/><circle cx="383" cy="23.2" fill="#fff" r=".9"/><circle cx="386.9" cy="24.9" fill="#fff" r=".9"/><circle cx="384.6" cy="23.9" fill="none" r="4" stroke="#222528" stroke-miterlimit="10" stroke-width="5"/><circle cx="307.1" cy="24" fill="#0e131b" r="2.6" stroke="#0d1133" stroke-miterlimit="10" stroke-width=".5"/><circle cx="296" cy="23.8" fill="#0e131b" r="2.6" stroke="#0d1133" stroke-miterlimit="10" stroke-width=".5"/><circle cx="278.8" cy="23.8" fill="#0d1133" r="5"/><circle cx="265.4" cy="23.8" fill="#0e131b" r="2.6"/></svg>