<svg viewBox="0 0 100 100" xmlns="http://www.w3.org/2000/svg"><path d="m69.37 95.84h-37.09a8.37 8.37 0 0 1 -8.36-8.36v-73.93a8.37 8.37 0 0 1 8.36-8.36h37.09a8.37 8.37 0 0 1 8.36 8.36v73.93a8.37 8.37 0 0 1 -8.36 8.36zm-37.09-89.11a6.83 6.83 0 0 0 -6.82 6.82v73.93a6.82 6.82 0 0 0 6.82 6.82h37.09a6.82 6.82 0 0 0 6.82-6.82v-73.93a6.83 6.83 0 0 0 -6.82-6.82z" fill="#06213e"/><g fill="#04203d"><path d="m77 45.41a.85.85 0 0 1 -.31-.06l-23.76-10.29a.77.77 0 0 1 -.4-1 .75.75 0 0 1 1-.4l23.74 10.28a.76.76 0 0 1 .4 1 .77.77 0 0 1 -.67.47z"/><path d="m53.24 35.12a.73.73 0 0 1 -.3-.06l-16.58-7a.77.77 0 1 1 .6-1.42l16.57 7a.76.76 0 0 1 .41 1 .75.75 0 0 1 -.7.48z"/><path d="m24.69 64.73a.77.77 0 0 1 -.53-.21.76.76 0 0 1 0-1.09l28.52-29.61a.76.76 0 0 1 1.09 0 .77.77 0 0 1 0 1.09l-28.52 29.59a.8.8 0 0 1 -.56.23z"/><path d="m36.66 28.11a.79.79 0 0 1 -.56-.24.77.77 0 0 1 0-1.09l22.46-21.37a.75.75 0 0 1 1.08 0 .76.76 0 0 1 0 1.09l-22.45 21.4a.77.77 0 0 1 -.53.21z"/><path d="m42.51 95.84h-.14a.76.76 0 0 1 -.62-.89l10.73-60.73a.77.77 0 1 1 1.51.27l-10.73 60.72a.76.76 0 0 1 -.75.63z"/><path d="m36.66 28.11a.77.77 0 0 1 -.76-.68l-2.44-20.93a.76.76 0 0 1 .67-.85.77.77 0 0 1 .86.67l2.44 20.93a.77.77 0 0 1 -.68.85z"/><path d="m71 94.71a.77.77 0 0 1 -.74-.55l-17.52-59.16a.77.77 0 0 1 1.47-.43l17.53 59.15a.77.77 0 0 1 -.52 1z"/></g></svg>