<svg viewBox="0 0 100 100" xmlns="http://www.w3.org/2000/svg"><path d="m68.46 97.32h-38.73a8.74 8.74 0 0 1 -8.73-8.73v-77.18a8.74 8.74 0 0 1 8.72-8.73h38.74a8.74 8.74 0 0 1 8.72 8.73v77.18a8.74 8.74 0 0 1 -8.72 8.73zm-38.73-93a7.13 7.13 0 0 0 -7.12 7.12v77.15a7.13 7.13 0 0 0 7.12 7.12h38.73a7.13 7.13 0 0 0 7.12-7.12v-77.18a7.13 7.13 0 0 0 -7.12-7.12z" fill="#06213e"/><path d="m56.93 97.32h-.09a.81.81 0 0 1 -.71-.89l4.36-38.94-16.06-24.49a.8.8 0 0 1 0-.88l18.51-28.66a.8.8 0 0 1 1.11-.24.81.81 0 0 1 .24 1.11l-18.23 28.17 15.94 24.35a.84.84 0 0 1 .13.53l-4.4 39.23a.79.79 0 0 1 -.8.71z" fill="#06213e"/><g fill="#04203d"><path d="m34.41 17.47a1.82 1.82 0 1 1 1.81-1.81 1.81 1.81 0 0 1 -1.81 1.81zm0-2.42a.61.61 0 0 0 -.62.61.62.62 0 0 0 1.23 0 .6.6 0 0 0 -.61-.61z"/><path d="m39.93 20.24h-6.09a4.64 4.64 0 0 1 0-9.28h6.09a4.64 4.64 0 1 1 0 9.28zm-6.09-8.07a3.43 3.43 0 0 0 0 6.86h6.09a3.43 3.43 0 0 0 0-6.86z"/></g></svg>