<svg viewBox="0 0 100 100" xmlns="http://www.w3.org/2000/svg"><g fill="#06213e"><path d="m66.5 95.55h-31.67a8.41 8.41 0 0 1 -8.4-8.4v-64.74a8.41 8.41 0 0 1 8.4-8.4h31.67a8.41 8.41 0 0 1 8.4 8.4v64.74a8.41 8.41 0 0 1 -8.4 8.4zm-31.67-80a6.85 6.85 0 0 0 -6.83 6.86v64.74a6.85 6.85 0 0 0 6.83 6.85h31.67a6.85 6.85 0 0 0 6.85-6.85v-64.74a6.85 6.85 0 0 0 -6.85-6.85z"/><path d="m64.44 15.56a.77.77 0 0 1 -.77-.78v-4a4.92 4.92 0 0 0 -5-4.78h-15.97a4.92 4.92 0 0 0 -5 4.78v4a.77.77 0 1 1 -1.54 0v-4a6.47 6.47 0 0 1 6.54-6.33h15.93a6.47 6.47 0 0 1 6.59 6.33v4a.78.78 0 0 1 -.78.78z"/><path d="m56.7 72.74a.79.79 0 0 1 -.55-.22l-11.42-11.43a.77.77 0 0 1 0-1.09l10.63-10.63-11.28-11.28a.77.77 0 0 1 0-1.09.78.78 0 0 1 1.1 0l11.82 11.82a.77.77 0 0 1 0 1.09l-10.63 10.63 10.88 10.88a.78.78 0 0 1 0 1.1.77.77 0 0 1 -.55.22z"/></g></svg>