<?xml version="1.0" encoding="UTF-8"?>
<svg width="130px" height="130px" viewBox="0 0 130 130" version="1.1" xmlns="http://www.w3.org/2000/svg" xmlns:xlink="http://www.w3.org/1999/xlink">
    <title>icon/call-us</title>
    <g id="icon/call-us" stroke="none" stroke-width="1" fill="none" fill-rule="evenodd" stroke-linecap="round" stroke-linejoin="round">
        <path d="M90.4858491,127.986912 C79.416295,128.259558 68.666916,124.26349 60.4700212,116.828565 C59.9373534,116.37638 59.4446357,115.977392 59.0185015,115.644903 C58.8187511,115.485308 34.6622685,95.2167495 18.2161517,77.0761237 C0.0521812744,56.7011686 -0.493803172,29.1178417 9.45376712,14.2090136 C14.1721988,6.67252669 22.4201168,2.06725406 31.3197784,2 C36.2602718,2 40.0954796,6.21596656 41.5603159,10.1393424 L48.8711808,33.5599011 C50.1362371,37.9312359 49.0369471,42.6450572 45.9681416,46.008307 L39.4829117,52.485202 C38.0580255,53.9215566 37.4188242,56.8341644 37.991442,57.9646286 C39.4030115,60.7974389 42.8520352,66.1172706 51.2016023,75.3870771 C57.3671541,82.0208652 64.5613414,87.6206287 72.5083124,91.9716522 C72.9873192,92.2202993 73.5306751,92.3176994 74.0663656,92.2509434 C75.5111766,92.117219 76.8922531,91.5930844 78.0613737,90.7347914 L85.2523884,83.952006 C87.481231,81.9129152 90.4370275,80.8538381 93.4554718,81.0127991 C94.9257472,81.0899004 96.3738173,81.4042937 97.7434472,81.9437696 L121.207462,92.35734 C125.633607,94.4985757 127.917757,99.4737418 126.653989,104.220564 C123.990651,111.814624 116.426769,124.861511 95.7858932,127.548026 C94.0715876,127.884123 92.3255253,128.0313 90.5790659,127.986912 L90.4858491,127.986912 Z" id="path" stroke="#0C2340" stroke-width="1.6"></path>
        <path d="M71.4061416,33.2445913 C78.8376005,33.14508 84.9988209,35.5408152 89.8898027,40.4317971 C94.7807845,45.3227789 97.2016503,51.5091297 97.1523999,58.9908495 M68.7530815,19.2950758 C82.1060194,18.8480336 92.6030427,22.4450668 100.244151,30.0861754 C107.88526,37.7272841 111.479384,48.2213984 111.026524,61.5685183 M68,3.00196082 C84.8700795,2.87909832 99.0174867,8.53003455 110.442222,19.9547695 C121.866957,31.3795044 127.518539,45.5275581 127.39697,62.3989304" id="highlight" stroke="#0C2340" stroke-width="1.6"></path>
    </g>
</svg>