<svg viewBox="0 0 100 100" xmlns="http://www.w3.org/2000/svg"><g fill="#06213e"><path d="m60.87 76.35h-21.74a6.85 6.85 0 0 1 -6.84-6.84v-45.82a6.84 6.84 0 0 1 6.84-6.84h21.74a6.84 6.84 0 0 1 6.84 6.84v45.82a6.85 6.85 0 0 1 -6.84 6.84zm-21.74-58.24a5.58 5.58 0 0 0 -5.58 5.58v45.82a5.59 5.59 0 0 0 5.58 5.58h21.74a5.59 5.59 0 0 0 5.58-5.58v-45.82a5.58 5.58 0 0 0 -5.58-5.58z"/><path d="m54.39 59.74a.62.62 0 0 1 -.44-.18l-8.32-8.32a.62.62 0 0 1 0-.89l7.69-7.69-8.16-8.17a.63.63 0 0 1 .89-.89l8.61 8.61a.64.64 0 0 1 0 .89l-7.66 7.69 7.88 7.88a.63.63 0 0 1 -.45 1.07z"/><path d="m53.93 83.28h-7.86c-1.93 0-3.5-2.1-3.5-4.68v-2.91a.63.63 0 0 1 1.26 0v2.91c0 1.85 1 3.42 2.24 3.42h7.86c1.21 0 2.24-1.57 2.24-3.42v-2.91a.63.63 0 0 1 1.26 0v2.91c0 2.58-1.57 4.68-3.5 4.68z"/><path d="m60.16 18.11h-20.32a.63.63 0 0 1 -.63-.63v-14.17a.63.63 0 0 1 .63-.63h20.32a.63.63 0 0 1 .63.63v14.17a.63.63 0 0 1 -.63.63zm-19.69-1.26h19.06v-12.92h-19.06z"/><path d="m46 14h-.73a1.56 1.56 0 0 1 -1.56-1.56v-4.13a1.56 1.56 0 0 1 1.56-1.56h.73a1.56 1.56 0 0 1 1.57 1.56v4.16a1.56 1.56 0 0 1 -1.57 1.53zm-.73-6a.3.3 0 0 0 -.3.3v4.16a.29.29 0 0 0 .3.3h.73a.3.3 0 0 0 .31-.3v-4.15a.31.31 0 0 0 -.31-.31z"/><path d="m54.76 14h-.76a1.56 1.56 0 0 1 -1.56-1.56v-4.13a1.56 1.56 0 0 1 1.56-1.56h.73a1.56 1.56 0 0 1 1.56 1.56v4.16a1.56 1.56 0 0 1 -1.53 1.53zm-.76-6a.31.31 0 0 0 -.31.3v4.16a.3.3 0 0 0 .31.3h.73a.29.29 0 0 0 .3-.3v-4.15a.3.3 0 0 0 -.3-.3z"/></g><path d="m50.18 97.32a.63.63 0 0 1 -.63-.63v-14.07a.63.63 0 1 1 1.26 0v14.07a.63.63 0 0 1 -.63.63z" fill="#04203d"/></svg>