<?xml version="1.0" encoding="utf-8"?>
<!-- Generator: Adobe Illustrator 22.0.1, SVG Export Plug-In . SVG Version: 6.00 Build 0)  -->
<svg version="1.1" id="Layer_1" xmlns="http://www.w3.org/2000/svg" xmlns:xlink="http://www.w3.org/1999/xlink" x="0px" y="0px"
	 viewBox="0 0 84.1 84.1" style="enable-background:new 0 0 84.1 84.1;" xml:space="preserve">
<style type="text/css">
	.st0{fill:#FFFFFF;}
</style>
<title>Artboard 3</title>
<path class="st0" d="M41.8,72.9c-17,0-30.7-13.8-30.7-30.7s13.8-30.7,30.7-30.7s30.7,13.8,30.7,30.7C72.5,59.2,58.8,72.9,41.8,72.9z
	 M41.8,13.5c-15.9,0-28.7,12.9-28.7,28.7S26,71,41.8,71s28.7-12.9,28.7-28.7c0,0,0,0,0,0C70.5,26.4,57.7,13.5,41.8,13.5z"/>
<path class="st0" d="M55.2,20.8c0.3-0.4,0.2-1-0.2-1.2s-1-0.2-1.2,0.2c0,0,0,0.1-0.1,0.1l-1.6,2.7c0.5,0.3,1,0.6,1.5,0.9L55.2,20.8z
	"/>
<path class="st0" d="M29.9,19.9c-0.2-0.4-0.8-0.6-1.2-0.3c0,0,0,0,0,0c-0.4,0.2-0.6,0.8-0.3,1.2c0,0,0,0,0,0l1.6,2.7
	c0.5-0.3,1-0.6,1.5-0.9L29.9,19.9z"/>
<path class="st0" d="M42.7,20.1v-3.1c-0.1-0.5-0.5-0.8-1-0.8c-0.4,0-0.7,0.4-0.8,0.8v3.1h0.9H42.7z"/>
<path class="st0" d="M64.2,30.3c0.4-0.2,0.6-0.8,0.3-1.2c0,0,0,0,0,0c-0.2-0.4-0.8-0.6-1.2-0.3c0,0,0,0,0,0l-2.7,1.6
	c0.3,0.5,0.6,1,0.9,1.5L64.2,30.3z"/>
<path class="st0" d="M53.7,64.6c0.2,0.4,0.8,0.6,1.2,0.3c0,0,0,0,0,0c0.4-0.2,0.6-0.8,0.3-1.2c0,0,0,0,0,0L53.7,61
	c-0.5,0.3-1,0.6-1.5,0.9L53.7,64.6z"/>
<path class="st0" d="M19.7,41.3h-3.1c-0.5,0.1-0.8,0.5-0.8,1c0,0.4,0.4,0.7,0.8,0.8h3.1c0-0.3,0-0.6,0-0.9S19.7,41.6,19.7,41.3z"/>
<path class="st0" d="M63.3,55.6c0.4,0.2,0.9,0.1,1.2-0.3c0,0,0,0,0,0c0.2-0.4,0.1-0.9-0.3-1.2c0,0,0,0,0,0l-2.7-1.6
	c-0.3,0.5-0.6,1-0.9,1.5L63.3,55.6z"/>
<path class="st0" d="M28.4,63.7c-0.2,0.4-0.1,1,0.3,1.2c0.4,0.2,1,0.1,1.2-0.3l1.6-2.7c-0.5-0.3-1-0.6-1.5-0.9L28.4,63.7z"/>
<path class="st0" d="M20.4,28.8c-0.4-0.2-1-0.1-1.2,0.3c0,0,0,0,0,0c-0.2,0.4-0.1,0.9,0.3,1.2c0,0,0,0,0,0l2.7,1.6
	c0.3-0.5,0.6-1,0.9-1.5L20.4,28.8z"/>
<path class="st0" d="M19.5,54.1c-0.4,0.2-0.6,0.8-0.3,1.2c0,0,0,0,0,0c0.2,0.4,0.8,0.6,1.2,0.3c0,0,0,0,0,0l2.7-1.6
	c-0.3-0.5-0.6-1-0.9-1.5L19.5,54.1z"/>
<path class="st0" d="M67.1,41.3H64c0,0.3,0,0.6,0,0.9s0,0.6,0,0.9h3.2c0.5-0.1,0.8-0.5,0.8-1C67.9,41.7,67.6,41.4,67.1,41.3
	L67.1,41.3z"/>
<path class="st0" d="M40.9,64.3v3.2c0.1,0.5,0.5,0.8,1,0.8c0.4,0,0.7-0.4,0.8-0.8v-3.2c-0.3,0-0.6,0-0.9,0H40.9z"/>
<path class="st0" d="M49.2,29.4c-0.5-0.3-1.1-0.1-1.4,0.4c0,0,0,0,0,0l-5,8.7V25c0-0.6-0.4-1-1-1s-1,0.4-1,1v17.2c0,0,0,0.1,0,0.1
	c0,0.1,0,0.1,0,0.2c0,0.1,0,0.1,0.1,0.2l0.1,0.2c0,0.1,0.1,0.1,0.2,0.1l0.1,0.1h0.1h0.1c0.1,0,0.2,0.1,0.3,0.1l0,0
	c0.1,0,0.2,0,0.3-0.1h0.1c0.1,0,0.2-0.1,0.3-0.2l0,0c0.1-0.1,0.1-0.1,0.2-0.2l6.9-11.9C49.8,30.3,49.7,29.7,49.2,29.4
	C49.2,29.4,49.2,29.4,49.2,29.4z"/>
</svg>
