<?xml version="1.0" encoding="utf-8"?>
<!-- Generator: Adobe Illustrator 22.0.1, SVG Export Plug-In . SVG Version: 6.00 Build 0)  -->
<svg version="1.1" id="Layer_1" xmlns="http://www.w3.org/2000/svg" xmlns:xlink="http://www.w3.org/1999/xlink" x="0px" y="0px"
	 viewBox="0 0 84.1 84.1" style="enable-background:new 0 0 84.1 84.1;" xml:space="preserve">
<style type="text/css">
	.st0{fill:#FFFFFF;}
</style>
<title>Artboard 7</title>
<path class="st0" d="M16.7,71.7c-0.2,0-0.4-0.1-0.6-0.2c-0.4-0.3-0.6-0.8-0.4-1.3c1.1-3.8,2.3-7.5,3.6-11.8
	c-4.8-5.2-7.5-12.1-7.6-19.2C11.7,23,25.5,9.9,42.4,9.9S73.2,23,73.2,39.1S59.4,68.4,42.4,68.4c-4.8,0-9.5-1.1-13.8-3.1
	c-4,1.7-7.8,3.8-11.4,6.2C17.1,71.6,16.9,71.6,16.7,71.7z M42.4,11.9c-15.8,0-28.7,12.2-28.7,27.2c0,6.8,2.7,13.4,7.4,18.3l0.4,0.4
	l-0.2,0.6c-1.2,3.6-2.2,6.9-3.2,10.1c3.2-1.9,6.6-3.7,10.1-5.2l0.4-0.2l0.4,0.2c4.1,2.1,8.7,3.1,13.3,3.1
	c15.8,0,28.7-12.2,28.7-27.2S58.3,11.9,42.4,11.9z"/>
<path class="st0" d="M29.4,42.7c-0.4,0.7-1,1.3-1.8,1.7c-0.8,0.4-1.7,0.7-2.7,0.6h-3.9v-9.7H25c0.9,0,1.9,0.2,2.7,0.6
	c0.7,0.4,1.4,1,1.8,1.7c0.4,0.8,0.6,1.6,0.5,2.5C30,41,29.8,41.9,29.4,42.7z M26.6,42c0.9-1,0.9-2.6,0-3.7c-0.5-0.5-1.2-0.7-1.9-0.7
	h-0.9v5h0.9C25.4,42.7,26.1,42.5,26.6,42z"/>
<path class="st0" d="M38.4,35.8c0.7,0.4,1.4,1,1.8,1.8c0.4,0.8,0.7,1.7,0.7,2.6c0,0.9-0.2,1.8-0.7,2.6c-0.4,0.7-1,1.4-1.8,1.8
	c-0.8,0.4-1.6,0.6-2.5,0.6c-0.9,0-1.7-0.2-2.5-0.6c-0.8-0.4-1.4-1-1.8-1.8c-0.9-1.6-0.9-3.5,0-5.2c0.4-0.7,1-1.4,1.8-1.8
	c0.8-0.4,1.6-0.7,2.5-0.6C36.8,35.1,37.7,35.4,38.4,35.8z M34.3,38.3c-0.4,0.5-0.6,1.2-0.6,1.8c0,0.7,0.2,1.3,0.6,1.8
	c0.4,0.5,1,0.7,1.6,0.7c0.6,0,1.2-0.2,1.6-0.7c0.8-1.1,0.8-2.5,0-3.6c-0.4-0.5-1-0.7-1.6-0.7C35.3,37.7,34.7,37.9,34.3,38.3z"/>
<path class="st0" d="M51.1,45h-2.7l-3.6-5.4V45h-2.7v-9.7h2.7l3.6,5.5v-5.5h2.7L51.1,45z"/>
<path class="st0" d="M55.3,37.5v1.6h3.2v2h-3.2v1.8h3.6V45h-6.3v-9.7h6.3v2.2H55.3z"/>
<path class="st0" d="M63.8,34.8l-0.3,6.6h-2.3l-0.3-6.6H63.8z M63.7,42.4V45h-2.7v-2.6H63.7z"/>
</svg>
