<svg viewBox="0 0 100 100" xmlns="http://www.w3.org/2000/svg"><path d="m68.43 97a32.34 32.34 0 0 1 -22.54-8.39c-.4-.34-.77-.64-1.09-.89-.15-.12-18.29-15.36-30.64-29-13.64-15.32-14.05-36.06-6.58-47.27a19.54 19.54 0 0 1 16.42-9.18c3.71 0 6.59 3.17 7.69 6.12l5.49 17.61a9.84 9.84 0 0 1 -2.18 9.36l-4.87 4.87c-1.07 1.08-1.55 3.27-1.12 4.12 1.06 2.13 3.65 6.13 9.92 13.1a63.44 63.44 0 0 0 16 12.47 2 2 0 0 0 1.17.21 6 6 0 0 0 3-1.14l5.4-5.1a8.46 8.46 0 0 1 6.16-2.21 10.24 10.24 0 0 1 3.22.7l17.62 7.83a7.71 7.71 0 0 1 4.09 8.92c-2 5.71-7.68 15.52-23.18 17.54a17.93 17.93 0 0 1 -3.91.33zm-44.43-92.86a17.7 17.7 0 0 0 -14.86 8.35c-8.89 13.35-3.6 33.73 6.42 45 12.44 13.66 30.24 28.62 30.44 28.75l1.14.93a30.48 30.48 0 0 0 20.68 8h.08a21.29 21.29 0 0 0 4.24-.29c14.61-1.91 19.89-11 21.75-16.28a5.88 5.88 0 0 0 -3.11-6.65l-17.53-7.82a8.51 8.51 0 0 0 -2.55-.57 6.69 6.69 0 0 0 -4.85 1.67l-5.54 5.22a7.64 7.64 0 0 1 -4.22 1.55 3.86 3.86 0 0 1 -2-.42 65.61 65.61 0 0 1 -16.53-12.85c-5.1-5.67-8.63-10.34-10.23-13.54-.82-1.65-.11-4.7 1.47-6.28l4.88-4.91a8.08 8.08 0 0 0 1.73-7.45l-5.54-17.55c-.87-2.39-3.23-4.86-5.87-4.86z" fill="#07213f"/><g fill="#04203d"><path d="m40 14.73a.94.94 0 0 1 -.22-1.85l6.89-1.74a.94.94 0 1 1 .41 1.86l-6.9 1.74a.85.85 0 0 1 -.18-.01z"/><path d="m48 20h-.13l-7.61-1a.94.94 0 1 1 .25-1.86l7.61 1a.94.94 0 0 1 .8 1.06.93.93 0 0 1 -.92.8z"/><path d="m38.38 10.34a1 1 0 0 1 -.78-.41.94.94 0 0 1 .25-1.3l6.55-4.51a.94.94 0 1 1 1.07 1.54l-6.56 4.51a.88.88 0 0 1 -.53.17z"/></g></svg>