<?xml version="1.0" encoding="UTF-8"?>
<svg width="130px" height="130px" viewBox="0 0 130 130" version="1.1" xmlns="http://www.w3.org/2000/svg" xmlns:xlink="http://www.w3.org/1999/xlink">
    <title>icon/email-us</title>
    <g id="icon/email-us" stroke="none" stroke-width="1" fill="none" fill-rule="evenodd" stroke-linecap="round" stroke-linejoin="round">
        <path d="M40.8777529,19.1446405 L58.7834214,4.93379254 C62.4241678,2.04431124 67.5758322,2.04431124 71.2165786,4.93379254 L88.9845683,19.0353717 L88.9845683,19.0353717 M111.142802,36.6212711 L124.216579,46.9972846 C126.606751,48.8942469 128,51.7787165 128,54.8301736 L128,118 C128,123.522847 123.522847,128 118,128 L12,128 C6.4771525,128 2,123.522847 2,118 L2,54.8301736 C2,51.7787165 3.3932489,48.8942469 5.7834214,46.9972846 L19.3448731,36.2342277 L19.3448731,36.2342277" id="path" stroke="#0C2340" stroke-width="1.6"></path>
        <path d="M20,71.4959844 L20,71.4959844 L20,25.0549659 C20,22.2631853 22.2385763,20 25,20 L105,20 C107.761424,20 110,22.2631853 110,25.0549659 L110,72 L110,72 M42.5,41.5 L87.5,41.5 M42.5,55.5 L87.5,55.5 M42.5,69.5 L72.5,69.5" id="highlight" stroke="#0C2340" stroke-width="1.6"></path>
        <path d="M2,105.233318 C2,102.181861 3.3932489,99.2973917 5.7834214,97.4004294 L58.7834214,55.3369373 C62.4241678,52.447456 67.5758322,52.447456 71.2165786,55.3369373 L124.216579,97.4004294 C126.606751,99.2973917 128,102.181861 128,105.233318" id="path" stroke="#0C2340" stroke-width="1.6" transform="translate(65.000000, 79.201572) scale(1, -1) translate(-65.000000, -79.201572) "></path>
    </g>
</svg>