<svg viewBox="0 0 100 100" xmlns="http://www.w3.org/2000/svg"><path d="m54.49 74.29h-.12c-11.45-1.53-20.94-10.91-22.08-21.83a8 8 0 0 1 0-1.3v-.52c-.06-7.26 4.28-13.51 10.79-15.56a16.47 16.47 0 0 1 19.52 9.13c1.82 4.4 1 9.07-2.17 11.89a7.66 7.66 0 0 1 -9 1.14 3 3 0 0 1 -1.43-3.89 1 1 0 0 1 1.24-.49.94.94 0 0 1 .49 1.24 1.12 1.12 0 0 0 .66 1.47 5.76 5.76 0 0 0 6.82-.87c2.54-2.28 3.2-6.12 1.69-9.77-2.63-6.35-10.67-10.11-17.23-8-5.8 1.82-9.52 7.22-9.47 13.75v.59a9 9 0 0 0 0 1c1.02 10.07 9.8 18.73 20.42 20.15a.94.94 0 0 1 -.13 1.87z"/><path d="m28.63 77.72a1 1 0 0 1 -.67-.28 41.93 41.93 0 0 1 -11.96-22.37c-2-11.07.55-20.51 7.49-28.07a32.45 32.45 0 0 1 4.23-3.66l.61-.47a.94.94 0 0 1 1.32.16 1 1 0 0 1 -.16 1.33l-.62.47a30.73 30.73 0 0 0 -4 3.44c-6.52 7.11-8.87 16.03-7.04 26.47a40 40 0 0 0 11.47 21.37.94.94 0 0 1 0 1.33.9.9 0 0 1 -.67.28z"/><path d="m71.61 77.78a.93.93 0 0 1 -.78-.41 1 1 0 0 1 .26-1.31 21.15 21.15 0 0 0 2-1.45c6.6-5.56 10-13 10.25-22a38.44 38.44 0 0 0 -2.2-13 42.69 42.69 0 0 0 -9.94-15.53.95.95 0 1 1 1.35-1.33 44.52 44.52 0 0 1 10.31 16.31 40 40 0 0 1 2.32 13.6c-.18 9.61-3.89 17.47-10.92 23.39a22.76 22.76 0 0 1 -2.12 1.57.92.92 0 0 1 -.53.16z"/><path d="m25.94 42.85a.92.92 0 0 1 -.28-.05.94.94 0 0 1 -.66-1.18 22 22 0 0 1 24.1-15.33 26.44 26.44 0 0 1 19.02 11.71.94.94 0 1 1 -1.55 1.08 24.62 24.62 0 0 0 -17.67-10.92 20.12 20.12 0 0 0 -22.06 14 1 1 0 0 1 -.9.69z"/><path d="m65.5 69.72a.95.95 0 0 1 -.28-1.85c7.2-2.23 11.85-9.23 11.55-17.41a24.87 24.87 0 0 0 -3.42-11.67.94.94 0 0 1 .34-1.29 1 1 0 0 1 1.29.34 26.85 26.85 0 0 1 3.68 12.55c.32 9-4.85 16.8-12.88 19.28a.92.92 0 0 1 -.28.05z"/><path d="m41.92 78.21a1 1 0 0 1 -.47-.12 37.62 37.62 0 0 1 -8.83-7 32.35 32.35 0 0 1 -8.75-19.77.94.94 0 0 1 1.88-.14 30.5 30.5 0 0 0 8.25 18.58 35.59 35.59 0 0 0 8.39 6.69.94.94 0 0 1 -.47 1.76z"/><path d="m54.87 66.21c-.43 0-.85 0-1.27 0a.94.94 0 1 1 .15-1.88 12.71 12.71 0 0 0 9.84-3.33 14.6 14.6 0 0 0 4.63-10.65.94.94 0 0 1 .94-.94.94.94 0 0 1 .93 1 16.51 16.51 0 0 1 -5.23 12 14.69 14.69 0 0 1 -9.99 3.8z"/><path d="m46.54 62.55a.93.93 0 0 1 -.59-.21c-4.68-3.73-6.55-9.34-4.77-14.21a8.62 8.62 0 0 1 5-5.18 7.73 7.73 0 0 1 6.48.44 3 3 0 0 1 1.46 3.92 3 3 0 0 1 -1.72 1.69 2.71 2.71 0 0 1 -2.27-.26.94.94 0 1 1 .95-1.62.86.86 0 0 0 .73.09 1.12 1.12 0 0 0 .63-.6 1.16 1.16 0 0 0 -.64-1.61 5.81 5.81 0 0 0 -4.91-.33 6.75 6.75 0 0 0 -3.89 4.11c-1.5 4.12.14 8.87 4.18 12.09a.94.94 0 0 1 -.59 1.68z"/><g fill="#04203d"><path d="m96.39 6h-18.47a.95.95 0 0 1 0-1.89h18.47a.95.95 0 1 1 0 1.89z"/><path d="m96.39 24.44a.94.94 0 0 1 -.94-.94v-18.5a.95.95 0 1 1 1.89 0v18.5a.94.94 0 0 1 -.95.94z"/><path d="m2.88 96.68a1 1 0 0 1 -.95-.94v-18.47a.95.95 0 0 1 1.89 0v18.47a.94.94 0 0 1 -.94.94z"/><path d="m22.59 96.68h-19.71a.94.94 0 1 1 0-1.88h19.71a.94.94 0 1 1 0 1.88z"/><path d="m95 98.08a.94.94 0 0 1 -.94-.94v-18.47a.94.94 0 1 1 1.88 0v18.47a.94.94 0 0 1 -.94.94z"/><path d="m95 98.08h-18.48a.94.94 0 0 1 0-1.88h18.48a.94.94 0 0 1 0 1.88z"/><path d="m22.75 4.57h-18.47a.95.95 0 1 1 0-1.89h18.47a.95.95 0 0 1 0 1.89z"/><path d="m4.28 24.28a1 1 0 0 1 -1-1v-19.66a.95.95 0 0 1 1.89 0v19.71a.94.94 0 0 1 -.89.95z"/></g></svg>