<svg viewBox="0 0 100 100" xmlns="http://www.w3.org/2000/svg"><path d="m66.53 91.06h-33.48a7.56 7.56 0 0 1 -7.55-7.55v-66.74a7.55 7.55 0 0 1 7.55-7.54h33.48a7.55 7.55 0 0 1 7.54 7.54v66.74a7.55 7.55 0 0 1 -7.54 7.55zm-33.48-80.45a6.17 6.17 0 0 0 -6.16 6.16v66.74a6.16 6.16 0 0 0 6.16 6.16h33.48a6.16 6.16 0 0 0 6.15-6.16v-66.74a6.17 6.17 0 0 0 -6.15-6.16z" fill="#06213e"/><g fill="#04203d"><path d="m80.37 4.57h-10.89a.7.7 0 0 1 0-1.39h10.89a.7.7 0 1 1 0 1.39z"/><path d="m80.37 15.46a.69.69 0 0 1 -.69-.69v-10.89a.7.7 0 1 1 1.39 0v10.89a.69.69 0 0 1 -.7.69z"/><path d="m19.2 97.1a.69.69 0 0 1 -.69-.69v-10.89a.7.7 0 1 1 1.39 0v10.89a.69.69 0 0 1 -.7.69z"/><path d="m30.82 97.1h-11.62a.7.7 0 0 1 0-1.39h11.62a.7.7 0 1 1 0 1.39z"/></g></svg>