<svg viewBox="0 0 100 100" xmlns="http://www.w3.org/2000/svg"><path d="m14.9 28.42h-3.75c-4.15 0-7.85 3.37-7.85 7.48v43.4c0 4.49 3.74 7.86 8.23 8.23h78.57a10.72 10.72 0 0 0 3.36-.75 8.62 8.62 0 0 0 4.12-7.48v-43c.37-4.12-3-7.49-7.11-7.86h-14.22a3.43 3.43 0 0 1 -2.62-1.12c-2.62-3-5.61-6-8.23-8.61a7.11 7.11 0 0 0 -4.86-1.87h-19.08a9 9 0 0 0 -6.74 2.62c-2.24 2.62-4.86 4.86-6.73 7.48a4.08 4.08 0 0 1 -4.86 1.5v-3.76h-8.23z" fill="none"/><path d="m89.72 87.62h-78.57a9.18 9.18 0 0 1 -9.06-9.07v-43.4a8.22 8.22 0 0 1 8.58-7.55h3.39v-2.92a.85.85 0 0 1 .84-.84h8.23a.84.84 0 0 1 .83.84v2.93c1.88 0 2.23-.09 3.45-1.28s2.2-2.49 3.33-3.71 2.26-2.42 3.35-3.72c1.5-1.9 4.12-2.9 7.37-2.9h19.08a7.54 7.54 0 0 1 5.46 2.06c3.09 3.09 5.68 5.69 8.31 8.69a2.53 2.53 0 0 0 2 .84h13.1c5.36 0 8.69 3 8.69 7.94v43a9.5 9.5 0 0 1 -4.54 8.21 6.29 6.29 0 0 1 -3.84.88zm-74-62.11v2.91a.83.83 0 0 1 -.83.83h-4.22c-3.82 0-6.6 2.39-6.93 6v43.3a7.49 7.49 0 0 0 7.41 7.45h78.57a4.81 4.81 0 0 0 2.91-.61 7.82 7.82 0 0 0 3.74-6.79v-43c0-3.93-2.63-6.28-7-6.28h-13.12a4.2 4.2 0 0 1 -3.25-1.44c-2.62-3-5.2-5.58-8.19-8.57a5.87 5.87 0 0 0 -4.31-1.66h-19.04c-2.74 0-4.9.82-6.08 2.31-1.15 1.34-2.29 2.57-3.42 3.8s-2.23 2.41-3.34 3.7c-1.86 1.83-2.6 1.88-5.52 1.79a.83.83 0 0 1 -.81-.83v-2.91zm34.72 52.75a21.78 21.78 0 1 1 21.78-21.78 21.81 21.81 0 0 1 -21.78 21.78zm0-41.9a20.12 20.12 0 1 0 20.12 20.12 20.15 20.15 0 0 0 -20.12-20.12zm0 28.77a8.65 8.65 0 1 1 8.65-8.65 8.66 8.66 0 0 1 -8.65 8.65zm0-15.64a7 7 0 1 0 7 7 7 7 0 0 0 -7-7z" fill="#04203d"/></svg>