<svg viewBox="0 0 100 100" xmlns="http://www.w3.org/2000/svg"><g fill="#06213e"><path d="m67 95.3h-37.51a8.47 8.47 0 0 1 -8.49-8.45v-74.76a8.47 8.47 0 0 1 8.46-8.45h37.54a8.46 8.46 0 0 1 8.45 8.45v74.76a8.46 8.46 0 0 1 -8.45 8.45zm-37.51-90.11a6.91 6.91 0 0 0 -6.9 6.9v74.76a6.9 6.9 0 0 0 6.9 6.89h37.51a6.91 6.91 0 0 0 6.9-6.89v-74.76a6.91 6.91 0 0 0 -6.9-6.9z"/><path d="m51.81 90.25h-7.25a3.53 3.53 0 0 1 0-7.06h7.25a3.53 3.53 0 0 1 0 7.06zm-7.25-5.5a2 2 0 0 0 0 3.94h7.25a2 2 0 0 0 0-3.94z"/><path d="m61.88 60a.79.79 0 0 1 -.65-.34l-11.55-17.19-15.25-4.66a.78.78 0 0 1 -.54-.66l-2-17.76a.78.78 0 0 1 1.55-.17l1.94 17.25 15 4.59a.77.77 0 0 1 .42.31l11.73 17.42a.78.78 0 0 1 -.22 1.08.75.75 0 0 1 -.43.13z"/><path d="m50.17 42.58a.81.81 0 0 1 -.53-.2.79.79 0 0 1 0-1.1l5.65-6.08-1.46-10a.78.78 0 0 1 .6-.88l8.78-1.89a.78.78 0 0 1 .28 1.57l-8.06 1.74 1.41 9.62a.76.76 0 0 1 -.2.64l-5.9 6.35a.75.75 0 0 1 -.57.23z"/></g></svg>