<svg enable-background="new 0 0 500 500" viewBox="0 0 500 500" xmlns="http://www.w3.org/2000/svg"><path d="m60.1 51.2c45.4 0 90.8 0 136.2.1 16.6 0 33.3.1 49.9.1-.2 1.3-1.3 2.5.5 3.6 2 1.2 3.9.6 5.7-.2 1.7-.9.2-2.2.2-3.4 3-.2 6-.3 8.9.2 9.9 1.7 16.5 9.4 16.6 19.4.1 13.4 0 26.9 0 40.3v318c0 5-.9 9.5-3.9 13.6-3.9 5.2-9.2 8-15.6 8-35.7.1-71.4 0-107.1 0-.4-1.9-2-2.4-3.5-2.7-3.5-.5-6.9-.5-10.3 0-1.4.2-3 .6-2.9 2.7-7.1.1-14.3.1-21.4.1-27.8 0-55.6-.2-83.4.1-13.6.2-21.9-9.7-21.9-21.9.2-88.3.2-176.6.2-264.9 0-.9.1-1.9.1-2.8 1.7.1 2.4-.8 2.4-2.5 0-5.4 0-10.8 0-16.2 0-1.7-.7-2.6-2.4-2.5 0-1.3 0-2.5 0-3.8 2.5-.1 2.4-2.1 2.4-3.7.2-5.3 0-10.6.1-15.8 0-1.9-.8-2.4-2.4-2.3 0-3.4 0-6.8 0-10.2 1.7.2 2.6-.3 2.5-2.3-.2-2.3 0-4.7-.1-6.9-.1-1.6-.3-3-2.4-3 0-7.6-.2-15.1 0-22.6.3-9.7 8.4-17.6 18.4-18.2 2.4-.2 4.7-.1 7-.1.9.2 1.8.6 2.8.6 7.4.1 14.7.1 22.2 0 .2-.2.7-.5 1.2-.8zm56.2 195.9c.4 8.8 4.4 17.7 11.4 25.3 2.8 3.1 6.4 3.6 10.2 1.7 4.3-2.1 8.7-2.1 12.9-.2 4.4 2 7.8.9 10.9-2.3 2.9-2.9 4.6-6.5 6.6-10 1.6-2.8 1-4.2-1.3-5.8-7.5-5.1-8-15.9-1.4-22.1 2.5-2.4 2.4-3.2-.3-5.1-6.1-4.5-12.5-3.9-19-1-1.7.8-3.2.8-5.1.1-4.2-1.5-8.4-3.6-13.2-1.6-7.6 3.1-11.7 9.8-11.7 21zm-83.2-174.4c-.1 4.3 3.4 7.8 7.6 7.8s7.8-3.6 7.7-7.7-3.5-7.5-7.5-7.6c-4.3-.2-7.7 3.1-7.8 7.5zm122.9 139.4c.2-2.2-.2-3.7-3.1-2-.5.2-1 .3-1.5.5-3.8 1.2-8.4 7.7-8.3 11.5.1 1.9.8 2.8 2.8 2.4 5.3-1.1 10.3-8 10.1-12.4z" fill="#eedfcc" stroke="#c5ae87" stroke-miterlimit="10"/><g fill="#c5ae87"><path d="m60.1 51.2c-.5.2-.9.6-1.4.6-7.4 0-14.7.1-22.2 0-.9 0-1.8-.4-2.8-.6-.1-1.3.5-1.8 1.9-1.8 7.5.1 15.1.1 22.5 0 1.4 0 2 .5 2 1.8z"/><path d="m8.3 114.5c1.7-.2 2.5.4 2.4 2.3-.1 5.3.1 10.6-.1 15.8-.1 1.5.2 3.6-2.4 3.7.1-7.3.1-14.5.1-21.8z"/><path d="m8.3 140.1c1.7-.1 2.4.8 2.4 2.5v16.2c0 1.7-.7 2.6-2.4 2.5 0-7.1 0-14.1 0-21.2z"/></g><path d="m134.8 450.7c-.1-2 1.5-2.4 2.9-2.7 3.5-.5 6.9-.5 10.3 0 1.6.2 3.1.8 3.5 2.7-5.5.3-11.1.3-16.7 0z" fill="#a7906f"/><path d="m8.3 92.1c2.1-.1 2.4 1.4 2.4 3 .1 2.3-.1 4.7.1 6.9.1 2-.9 2.4-2.5 2.3 0-4 0-8.1 0-12.2z" fill="#c5ae87"/><path d="m252.6 51.4c0 1.2 1.4 2.5-.2 3.4-1.8.9-3.7 1.4-5.7.2-1.7-1-.6-2.4-.5-3.6 2.1-.3 4.3-.3 6.4 0z" fill="#4a494a"/><path d="m33.1 72.7c.1-4.3 3.5-7.6 7.8-7.5 4.1.1 7.5 3.5 7.5 7.6.1 4.1-3.5 7.8-7.7 7.7s-7.7-3.6-7.6-7.8z" fill="#6b6b6b"/><path d="m278.1 71.1c.1 13.4 0 26.9 0 40.3v318c0 5-.9 9.5-3.9 13.6-3.9 5.2-9.2 8-15.6 8-35.7.1-71.4 0-107.1 0-.4-1.9-2-2.4-3.5-2.7-3.5-.5-6.9-.5-10.3 0-1.4.2-3 .6-2.9 2.7-7.1.1-14.3.1-21.4.1-27.8 0-55.6-.2-83.4.1-3.5 0-6.6-.6-9.4-1.7-1.6-.7-3.1-1.6-4.4-2.5-1.3-1-2.4-2.1-3.5-3.4-1.1-1.7 265.4-382.5 265.4-372.5z" fill="#c5ae87" opacity=".7"/><path d="m116.3 247.1c0-11.2 4.1-17.8 11.7-21.1 4.8-2 9 .1 13.2 1.6 2 .7 3.4.6 5.1-.1 6.5-2.8 12.9-3.4 19 1 2.7 2 2.8 2.8.3 5.1-6.5 6.1-6.1 17 1.4 22.1 2.3 1.6 2.8 3 1.3 5.8-2 3.5-3.7 7.2-6.6 10-3.2 3.2-6.5 4.3-10.9 2.3-4.2-2-8.5-2-12.9.2-3.9 1.9-7.3 1.3-10.2-1.7-6.9-7.5-11-16.4-11.4-25.2z" fill="#f2e6d6"/><path d="m163.2 227.3s.1 0 0 0c.8.5 1.4.9 2.1 1.4 2.7 2 2.8 2.8.3 5.1-6.5 6.1-6.1 17 1.4 22.1 2.3 1.6 2.8 3 1.3 5.8-2 3.5-3.7 7.2-6.6 10-3.2 3.2-6.5 4.3-10.9 2.3-4.2-2-8.5-2-12.9.2-2.9 1.4-5.6 1.5-7.9.2 0-.2 33.1-47.2 33.2-47.1z" fill="#e5d0bd"/><path d="m156 212.1c.2 4.4-4.7 11.3-10.1 12.3-2 .4-2.7-.6-2.8-2.4-.1-3.8 4.5-10.3 8.3-11.5.5-.2 1-.2 1.5-.5 2.9-1.6 3.3-.2 3.1 2.1z" fill="#f2e6d6"/><path d="m221.4 250.1c0-59.8 0-119.6 0-179.4 0-9.7 5.5-17.3 14.3-20 2.3-.7 4.6-.9 6.9-.9h228.6c12.5 0 21.2 8.7 21.2 21.1v358.4c0 12.5-8.5 21.2-21.1 21.2-76.4 0-152.8 0-229.2 0-12.2 0-20.8-8.8-20.8-21.1.1-59.7.1-119.4.1-179.3zm257.1.3c0-52.2 0-104.5.1-156.7 0-2.7-.3-3.9-3.5-3.9-78.7.1-157.3.1-236 0-2.8 0-3.6.6-3.6 3.5.1 104.5.1 209.1 0 313.7 0 3.1.9 3.9 4 3.9 78.2.1 156.5.1 234.7.1 4.3 0 4.4-.1 4.4-4.5-.1-52.1-.1-104.1-.1-156.1zm-122.2 191.3c5.8.1 11-4.9 11-10.5 0-4.8-5.3-9.9-10.2-9.9-5.4 0-10.2 4.7-10.2 10.2-.1 5.1 4.6 10.1 9.4 10.2zm3.3-371c-.3-1.5-1-2.5-2.8-2.5-1.7.1-2.4 1-2.4 2.7 0 1.8 1.1 2.8 2.8 2.8s2.3-1.4 2.4-3z" fill="#f2f2f3" stroke="#c5ae87" stroke-miterlimit="10"/><path d="m356.3 441.7c-4.8-.1-9.5-5.1-9.5-10.2 0-5.4 4.7-10.2 10.2-10.2 5 0 10.2 5 10.2 9.9 0 5.6-5.1 10.6-10.9 10.5z" fill="#fff" stroke="#c5ae87" stroke-miterlimit="10" stroke-width="2"/><path d="m359.6 70.7c-.1 1.7-.8 2.8-2.4 2.9-1.7.1-2.8-.9-2.8-2.8 0-1.7.7-2.7 2.4-2.7s2.5 1.1 2.8 2.6z" fill="#0d0c0d"/><path d="m221.5 250.4c0-59.8 0-119.6 0-179.4 0-9.7 5.5-17.3 14.3-20 2.3-.7 4.6-.9 6.9-.9h228.6c2.1 0-2.1 14-8.1 31.9-.4 1.3-.9 2.4-1.3 3.8-.3.9-.6 2-1.1 2.9-48.1 95.9-165.1 319.1-218.5 362.2-12.2 0-20.8-8.8-20.8-21.1 0-59.8 0-119.6 0-179.4zm238.8-160.3c-.7 0-1.3 0-2 0-1.7 0-3.4 0-5 0-2 0-3.9 0-5.9 0-8.8 0-17.5 0-26.3 0-38.2 0-76.2 0-114.4 0-22.5 0-45 0-67.6-.1-2.8 0-3.6.6-3.6 3.5.1 69.5.1 138.8.1 208.3v47.3 58.1c0 3.1.9 3.9 4 3.9h55.5c59.7.1 170.2-321 165.2-321zm-100.6-19.3c-.3-1.5-1-2.5-2.8-2.5-1.7.1-2.4 1-2.4 2.7 0 1.8 1.1 2.8 2.8 2.8 1.6 0 2.3-1.3 2.4-3z" fill="#fff"/><path d="m478.5 252.3v157.8c0 4.5-.1 4.6-4.4 4.6-78.2 0-156.5 0-234.7.1-3.1 0-4-.9-4-4 .1-105.7.1-211.5 0-317.3 0-2.9.9-3.5 3.6-3.5 78.7.1 157.3.1 236 0 3.2 0 3.5 1.3 3.5 3.9z" fill="#3b3c3c"/></svg>