<svg viewBox="0 0 100 100" xmlns="http://www.w3.org/2000/svg"><path d="m90.2 59.32a.76.76 0 0 1 -.76-.76 40.39 40.39 0 0 0 -80.78 0 .76.76 0 0 1 -.76.76.75.75 0 0 1 -.75-.76 41.9 41.9 0 0 1 83.8 0 .75.75 0 0 1 -.75.76z" fill="#04203d"/><path d="m86.44 81.59h-8a4.52 4.52 0 0 1 -4.52-4.51v-19a4.53 4.53 0 0 1 4.52-4.52h8a4.52 4.52 0 0 1 4.56 4.56v19a4.51 4.51 0 0 1 -4.56 4.47zm-8-26.47a3 3 0 0 0 -3 3v19a3 3 0 0 0 3 3h8a3 3 0 0 0 3-3v-19a3 3 0 0 0 -3-3z" fill="#06213e"/><path d="m19.67 81.59h-8a4.51 4.51 0 0 1 -4.51-4.51v-19a4.52 4.52 0 0 1 4.51-4.52h8a4.53 4.53 0 0 1 4.52 4.52v19a4.52 4.52 0 0 1 -4.52 4.51zm-8-26.47a3 3 0 0 0 -3 3v19a3 3 0 0 0 3 3h8a3 3 0 0 0 3-3v-19a3 3 0 0 0 -3-3z" fill="#06213e"/><g fill="#04203d"><path d="m95.82 74.28a.75.75 0 0 1 -.75-.75v-11.86a.76.76 0 1 1 1.51 0v11.86a.75.75 0 0 1 -.76.75z"/><path d="m2.27 74.28a.75.75 0 0 1 -.75-.75v-11.86a.76.76 0 1 1 1.51 0v11.86a.75.75 0 0 1 -.76.75z"/></g></svg>