<svg viewBox="0 0 100 100" xmlns="http://www.w3.org/2000/svg"><g fill="#06213e"><path d="m3.32 39.52a.91.91 0 0 1 -.44-1.71c1.74-.94 12.85-7.5 23.59-13.84 11.3-6.67 22-13 23.74-13.93a.91.91 0 1 1 .87 1.6c-1.74.95-12.9 7.53-23.68 13.9-11.26 6.64-21.88 12.91-23.64 13.87a.87.87 0 0 1 -.44.11z"/><path d="m96.51 39.52a.86.86 0 0 1 -.43-.11c-1.77-1-12.07-7.25-23-13.91-10.38-6.35-21.08-12.92-22.87-13.86a.92.92 0 0 1 -.36-1.24.91.91 0 0 1 1.23-.4c1.78 1 12.07 7.25 23 13.91 10.38 6.39 21.14 12.96 22.92 13.9a.92.92 0 0 1 .36 1.24.9.9 0 0 1 -.85.47z"/><path d="m82.91 90.29h-25.22a.91.91 0 0 1 -.91-.91v-20.71h-12.29v20.71a.91.91 0 0 1 -.91.91h-25.52a.91.91 0 0 1 -.91-.91v-50.74a.93.93 0 0 1 .46-.8l32.59-18.23a.92.92 0 0 1 1.24.35.9.9 0 0 1 -.35 1.24l-32.09 17.97v49.3h23.7v-20.71a.91.91 0 0 1 .91-.91h14.08a.91.91 0 0 1 .91.91v20.71h23.4v-49.53a.91.91 0 0 1 1.82 0v50.44a.91.91 0 0 1 -.91.91z"/><path d="m82.91 39.85a1 1 0 0 1 -.44-.11c-1.66-.91-9-5.17-16.15-9.28s-14.47-8.36-16.11-9.25a.91.91 0 0 1 .87-1.6c1.66.9 9 5.16 16.15 9.27s14.47 8.36 16.11 9.26a.91.91 0 0 1 -.43 1.71z"/></g><path d="m75.47 26.37a.83.83 0 0 1 -.82-.83v-12.38a.83.83 0 1 1 1.65 0v12.38a.83.83 0 0 1 -.83.83z" fill="#04203d"/></svg>