<svg viewBox="0 0 100 100" xmlns="http://www.w3.org/2000/svg"><path d="m14.89 22.53h-3.74c-4.15 0-7.85 3.37-7.85 7.47v43.4c0 4.49 3.74 7.86 8.23 8.23h78.56a11 11 0 0 0 3.37-.74 8.64 8.64 0 0 0 4.12-7.49v-43c.37-4.12-3-7.48-7.11-7.86h-14.22a3.4 3.4 0 0 1 -2.62-1.12c-2.62-3-5.61-6-8.23-8.61a7.11 7.11 0 0 0 -4.86-1.87h-19.08a9 9 0 0 0 -6.74 2.62c-2.24 2.61-4.86 4.86-6.72 7.44a4.09 4.09 0 0 1 -4.86 1.49v-3.7h-8.25z" fill="none"/><path d="m89.72 81.73h-78.57a9.18 9.18 0 0 1 -9.06-9.07v-43.39a8.21 8.21 0 0 1 8.58-7.55h3.39v-2.93a.84.84 0 0 1 .84-.79h8.23a.83.83 0 0 1 .83.83v2.93c1.88 0 2.23-.09 3.44-1.28s2.21-2.48 3.34-3.7 2.26-2.46 3.35-3.78c1.5-1.87 4.12-2.91 7.37-2.91h19.08a7.56 7.56 0 0 1 5.46 2.08c3.08 3.09 5.68 5.69 8.31 8.69a2.53 2.53 0 0 0 2 .84h13.1c5.36 0 8.69 3 8.69 7.94v43a9.48 9.48 0 0 1 -4.54 8.21 6.29 6.29 0 0 1 -3.84.88zm-74-62.11v2.91a.83.83 0 0 1 -.83.83h-4.23c-3.81 0-6.59 2.4-6.92 6v43.3a7.49 7.49 0 0 0 7.39 7.4h78.59a4.88 4.88 0 0 0 2.91-.6 7.85 7.85 0 0 0 3.74-6.8v-43c0-3.93-2.63-6.28-7-6.28h-13.12a4.19 4.19 0 0 1 -3.25-1.38c-2.62-3-5.2-5.58-8.19-8.57a5.83 5.83 0 0 0 -4.31-1.66h-19.04c-2.74 0-4.9.82-6.09 2.3s-2.28 2.57-3.41 3.8-2.23 2.41-3.34 3.71c-1.86 1.82-2.6 1.88-5.52 1.78a.83.83 0 0 1 -.81-.83v-2.91z" fill="#04203d"/><path d="m29.09 49.59a21.07 21.07 0 1 1 21 21.08 21.06 21.06 0 0 1 -21-21.08zm21.06 7.35h2.86a.79.79 0 0 0 .7-.35q1.7-2.16 3.43-4.3a.76.76 0 0 0 .15-.72c-.48-2-.94-4.09-1.42-6.13a.74.74 0 0 0 -.35-.46q-2.58-1.27-5.17-2.5a.72.72 0 0 0 -.54 0q-3 1.44-6.08 2.93a.77.77 0 0 0 -.36.45c-.4 1.64-.77 3.3-1.13 5a.63.63 0 0 0 .11.48c1.41 1.79 2.83 3.58 4.27 5.35a.87.87 0 0 0 .59.28c.98.03 1.96-.03 2.94-.03zm4.34-26.21-.09.14c1.46 6.41 2.92 12.82 4.4 19.3l.34-.4c2.47-3.1 4.93-6.2 7.41-9.29a.69.69 0 0 0 .07-1 19.26 19.26 0 0 0 -8.86-7.64c-1.06-.41-2.18-.73-3.27-1.11zm.75 12.12c0-.06 0-.07 0-.08-.91-4-1.82-8-2.76-12.06a.48.48 0 0 0 -.36-.28 19.12 19.12 0 0 0 -12 2.66c-.72.43-1.4.94-2.17 1.47zm-1.44 25.71-12.11-15.19-.09.18q-1.26 5.55-2.53 11.09c-.15.65-.14.65.43 1a19.17 19.17 0 0 0 11.79 3.17c.8-.02 1.6-.15 2.51-.25zm-22.89-19 17.09-8.19-.23-.13-10.9-5.24c-.26-.13-.37 0-.52.14a19.1 19.1 0 0 0 -5 9.22 16.83 16.83 0 0 0 -.44 4.22zm36.88-7.79-12 15.13h.34 11.52c.31 0 .4-.15.49-.39a19.36 19.36 0 0 0 1-10.41 18.35 18.35 0 0 0 -1.35-4.31zm-.63 17.09-.12-.1h-18.72l.18.25q3.49 4.38 7 8.77c.19.24.36.22.61.14a18.86 18.86 0 0 0 8.85-6c.78-.92 1.46-2.01 2.2-3.04zm-25.8-12.31c-3.45 1.66-6.81 3.27-10.17 4.9a.5.5 0 0 0 -.17.4 19.11 19.11 0 0 0 5 10.83c.42.45.87.88 1.37 1.37z"/></svg>