<svg viewBox="0 0 100 100" xmlns="http://www.w3.org/2000/svg"><g fill="#06213e"><path d="m45.92 95.3a.76.76 0 0 1 -.75-.76v-7a2.7 2.7 0 0 0 -1-2c-5.42-4.54-11.17-9.61-16.65-14.54-1.67-1.39-2.12-3.29-1.13-4.92 1.26-1.6 2.88-1.91 5.13-1.07 2 .89 3.94 1.69 5.86 2.5s3.87 1.62 5.86 2.49a1.48 1.48 0 0 0 1.39 0 1.55 1.55 0 0 0 .54-1.33v-29.81a4.22 4.22 0 0 1 4.23-4.48 4.43 4.43 0 0 1 4.48 4.48v17.9c0 1.19.3 1.56 1.36 1.74 1.86.25 3.7.57 5.48.87s3.59.62 5.44.87a14.41 14.41 0 0 1 11 7.85c2.34 4.46 2.35 9.53 0 15.06a62.48 62.48 0 0 1 -3.14 6.42c-.8 1.48-1.62 3-2.34 4.55a.74.74 0 0 1 -1 .36.76.76 0 0 1 -.37-1c.74-1.58 1.57-3.12 2.37-4.62a60.59 60.59 0 0 0 3.08-6.28c2.16-5.11 2.17-9.74 0-13.79a12.81 12.81 0 0 0 -9.9-7.06c-1.86-.25-3.7-.57-5.48-.88s-3.51-.62-5.38-.85-2.64-1.3-2.64-3.23v-17.91a2.91 2.91 0 0 0 -3-3 2.71 2.71 0 0 0 -2.73 3v29.83a3 3 0 0 1 -1.22 2.58 2.89 2.89 0 0 1 -2.81.1c-2-.87-3.91-1.68-5.84-2.49s-3.76-1.61-5.76-2.49c-1.87-.69-2.67-.31-3.34.53s-.25 2 .89 2.93c5.45 5 11.23 10 16.66 14.68a4.29 4.29 0 0 1 1.5 3v7a.75.75 0 0 1 -.79.77z"/><path d="m19.81 61.37a.73.73 0 0 1 -.63-.35 54 54 0 0 1 -3-5.23 35 35 0 0 1 -2.91-19.28 35.75 35.75 0 0 1 13.22-24.35 36 36 0 0 1 18.82-8.25c13.94-1.47 24.97 3.09 33.69 13.74a36 36 0 0 1 8 20.35 7.33 7.33 0 0 0 0 1.1 7.33 7.33 0 0 1 .06 1.25 28.57 28.57 0 0 1 0 4.73 24.68 24.68 0 0 1 -.7 4.4 37.74 37.74 0 0 1 -5.36 11.27.75.75 0 0 1 -1 .21.75.75 0 0 1 -.22-1 36.24 36.24 0 0 0 5.08-10.86 22.8 22.8 0 0 0 .66-4.1 28.39 28.39 0 0 0 0-4.63 7.46 7.46 0 0 0 0-1.1 6.39 6.39 0 0 1 -.07-1.27 34.4 34.4 0 0 0 -7.59-19.4c-8.4-10.28-19-14.6-32.38-13.2a34.6 34.6 0 0 0 -18 7.92 33.86 33.86 0 0 0 -12.68 23.37 33.66 33.66 0 0 0 2.78 18.47 54.34 54.34 0 0 0 2.87 5.06.76.76 0 0 1 -.24 1 .71.71 0 0 1 -.4.15z"/><path d="m70 54.69a.79.79 0 0 1 -.46-.15.75.75 0 0 1 -.14-1 24.42 24.42 0 1 0 -39.31-.73.75.75 0 1 1 -1.23.86 25.91 25.91 0 1 1 41.74.77.74.74 0 0 1 -.6.25z"/><path d="m35.73 45.08a.75.75 0 0 1 -.68-.44 15.7 15.7 0 0 1 5.75-19.35 13.26 13.26 0 0 1 8.6-2.84 15.83 15.83 0 0 1 11.83 5.28 15.39 15.39 0 0 1 3.84 12 21.09 21.09 0 0 1 -1 3.92.75.75 0 1 1 -1.39-.56 19.85 19.85 0 0 0 .95-3.59 13.82 13.82 0 0 0 -3.47-10.73 14.34 14.34 0 0 0 -10.76-4.77 11.7 11.7 0 0 0 -7.73 2.57 14.17 14.17 0 0 0 -5.26 17.43.75.75 0 0 1 -.36 1 .74.74 0 0 1 -.32.08z"/></g></svg>