<?xml version="1.0" encoding="UTF-8"?>
<svg width="130px" height="130px" viewBox="0 0 130 130" version="1.1" xmlns="http://www.w3.org/2000/svg" xmlns:xlink="http://www.w3.org/1999/xlink">
    <title>icon/live-chat</title>
    <g id="icon/live-chat" stroke="none" stroke-width="1" fill="none" fill-rule="evenodd" stroke-linecap="round" stroke-linejoin="round">
        <path d="M3.96875,120.25 C20.2847176,120.25 32.515625,112.424267 38.5694351,107.600685 C46.6167488,110.627831 55.5499039,112.375 65,112.375 C99.7977524,112.375 128,89.463768 128,61.1875 C128,32.911232 99.7977524,10 65,10 C30.2022476,10 2,32.911232 2,61.1875 C2,73.3936539 7.26650238,84.5664062 16.0273438,93.3520012 C12.9511719,105.754982 2.66450119,116.804688 2.54145432,116.927734 C2,117.493702 1.85243988,118.330517 2.17231369,119.068798 C2.4921875,119.807079 3.18120193,120.25 3.96875,120.25 Z" id="path" stroke="#0C2340" stroke-width="1.6"></path>
        <path d="M33.5,53.3125 C37.8559074,53.3125 41.375,56.8315926 41.375,61.1875 C41.375,65.5434074 37.8559074,69.0625 33.5,69.0625 C29.1440926,69.0625 25.625,65.5434074 25.625,61.1875 C25.625,56.8315926 29.1440926,53.3125 33.5,53.3125 Z M65,53.3125 C69.3559074,53.3125 72.875,56.8315926 72.875,61.1875 C72.875,65.5434074 69.3559074,69.0625 65,69.0625 C60.6440926,69.0625 57.125,65.5434074 57.125,61.1875 C57.125,56.8315926 60.6440926,53.3125 65,53.3125 Z M96.5,53.3125 C100.855907,53.3125 104.375,56.8315926 104.375,61.1875 C104.375,65.5434074 100.855907,69.0625 96.5,69.0625 C92.1440926,69.0625 88.625,65.5434074 88.625,61.1875 C88.625,56.8315926 92.1440926,53.3125 96.5,53.3125 Z" id="highlight" stroke="#0C2340" stroke-width="1.6"></path>
    </g>
</svg>