<?xml version="1.0" encoding="utf-8"?>
<!-- Generator: Adobe Illustrator 22.0.1, SVG Export Plug-In . SVG Version: 6.00 Build 0)  -->
<svg version="1.1" id="Layer_1" xmlns="http://www.w3.org/2000/svg" xmlns:xlink="http://www.w3.org/1999/xlink" x="0px" y="0px"
	 viewBox="0 0 84.1 84.1" style="enable-background:new 0 0 84.1 84.1;" xml:space="preserve">
<style type="text/css">
	.st0{fill:#FFFFFF;}
</style>
<title>Artboard 5</title>
<path class="st0" d="M59.5,27.4h-3.2v-4.3c0.2-7.4-5.6-13.5-13-13.7s-13.5,5.6-13.7,13c0,0.2,0,0.5,0,0.7v4.3h-3.2
	c-3.4,0-6.1,2.7-6.1,6.1v33c0,3.4,2.7,6.1,6.1,6.1h33c3.4,0,6.1-2.7,6.1-6.1v-33C65.6,30.2,62.9,27.4,59.5,27.4
	C59.5,27.4,59.5,27.4,59.5,27.4z M31.6,23.1c-0.2-6.3,4.7-11.5,11-11.7c6.3-0.2,11.5,4.7,11.7,11c0,0.2,0,0.4,0,0.7v4.3h-1.9v-4.1
	c0-5.2-4.2-9.4-9.4-9.4s-9.4,4.2-9.4,9.4c0,0,0,0,0,0v4.1h-1.9V23.1z M50.4,27.4H35.6v-4.1c0-4.1,3.3-7.4,7.4-7.4s7.4,3.3,7.4,7.4
	V27.4z M63.6,66.5c0,2.3-1.8,4.1-4.1,4.1h-33c-2.3,0-4.1-1.9-4.1-4.1v-33c0-2.3,1.8-4.1,4.1-4.1h33c2.3,0,4.1,1.9,4.1,4.1V66.5z"/>
<path class="st0" d="M43,37.6c-4.1,0-7.4,3.3-7.4,7.4c0,2.1,0.9,4,2.4,5.4v7.3c0,2.6,2.1,4.8,4.8,4.8h0.5c2.6,0,4.7-2.2,4.7-4.8
	v-7.3c3-2.8,3.2-7.4,0.4-10.4C47,38.4,45.1,37.6,43,37.6z M46.4,49.1L46,49.4v8.3c0,1.5-1.3,2.8-2.8,2.8h-0.5
	c-1.5,0-2.7-1.3-2.8-2.8v-8.3l-0.4-0.3c-1.3-1-2-2.5-2-4.2c0-3,2.4-5.4,5.4-5.5s5.4,2.4,5.5,5.4C48.5,46.5,47.7,48.1,46.4,49.1
	L46.4,49.1z"/>
</svg>
