<svg viewBox="0 0 100 100" xmlns="http://www.w3.org/2000/svg"><g fill="#04203d"><path d="m63.5 92.67a12.15 12.15 0 0 1 -6.08-2.2l-25.42-16.35a3.59 3.59 0 0 0 -1.31-.12h-21.14a5.73 5.73 0 0 1 -4.55-4.46v-33.49-.12a6.67 6.67 0 0 1 7.33-4.75h18.74a2.6 2.6 0 0 0 1.51-.29c1.61-1.09 3.41-2.22 5.21-3.36s3.57-2.26 5.27-3.38c3.8-2.72 7.83-5.26 11.73-7.72 1.52-1 3-1.91 4.51-2.86a6 6 0 0 1 4.8-.86 6.18 6.18 0 0 1 4.4 6.59v65.55c0 .15.42 5.33-2.62 7.19a4.51 4.51 0 0 1 -2.38.63zm-5.19-3.62c3 1.87 5.32 2.4 6.7 1.56 1.8-1.09 1.93-4.48 1.83-5.69v-65.74a4.6 4.6 0 0 0 -3.2-4.87 4.4 4.4 0 0 0 -3.43.66c-1.49 1-3 1.91-4.53 2.87-3.88 2.45-7.89 5-11.67 7.68-1.73 1.15-3.53 2.29-5.33 3.42s-3.57 2.26-5.26 3.39a4.24 4.24 0 0 1 -2.35.52h-18.88a5.06 5.06 0 0 0 -5.58 3.44v33.09a4 4 0 0 0 3.11 3h21a3.59 3.59 0 0 1 2.4.55z"/><path d="m76.7 72.49a.84.84 0 1 1 0-1.67 18.22 18.22 0 0 0 0-36.43.84.84 0 1 1 0-1.67 19.89 19.89 0 0 1 0 39.77z"/><path d="m76.7 67.25a.84.84 0 0 1 0-1.68 13 13 0 0 0 0-25.93.84.84 0 0 1 -.84-.84.83.83 0 0 1 .84-.8 14.64 14.64 0 0 1 0 29.28z"/><path d="m76.7 62.28a.84.84 0 1 1 0-1.68 8 8 0 0 0 0-16 .84.84 0 1 1 0-1.68 9.68 9.68 0 0 1 0 19.35z"/></g></svg>