<svg viewBox="0 0 100 100" xmlns="http://www.w3.org/2000/svg"><path d="m49.59 61.45a12.83 12.83 0 0 1 -12.82-12.81v-31.64a12.82 12.82 0 0 1 25.63 0v31.64a12.83 12.83 0 0 1 -12.81 12.81zm0-55.7a11.24 11.24 0 0 0 -11.23 11.25v31.64a11.23 11.23 0 0 0 22.45 0v-31.64a11.23 11.23 0 0 0 -11.22-11.25z" fill="#06213e"/><g fill="#04203d"><path d="m49.59 69.37a21.68 21.68 0 0 1 -21.66-21.66.79.79 0 0 1 .79-.8.8.8 0 0 1 .8.8 20.07 20.07 0 1 0 40.14 0 .79.79 0 0 1 .79-.8.8.8 0 0 1 .8.8 21.69 21.69 0 0 1 -21.66 21.66z"/><path d="m49.59 95.84a.79.79 0 0 1 -.8-.79v-26.47a.8.8 0 0 1 .8-.8.79.79 0 0 1 .79.8v26.47a.79.79 0 0 1 -.79.79z"/><path d="m57.9 78.8h-16.63a.5.5 0 0 1 -.5-.5.51.51 0 0 1 .5-.5h16.63a.5.5 0 0 1 .5.5.5.5 0 0 1 -.5.5z"/></g></svg>