<svg viewBox="0 0 100 100" xmlns="http://www.w3.org/2000/svg"><g fill="#04203d"><path d="m70.55 92.85a12.58 12.58 0 0 1 -6.29-2.28l-26.32-16.91a3.63 3.63 0 0 0 -1.34-.14h-21.87a5.9 5.9 0 0 1 -4.73-4.6v-34.66-.11a6.92 6.92 0 0 1 7.58-4.92h19.42a2.66 2.66 0 0 0 1.56-.3c1.68-1.12 3.54-2.3 5.41-3.48s3.68-2.34 5.43-3.45c3.94-2.82 8.13-5.46 12.17-8q2.36-1.53 4.63-3a6.29 6.29 0 0 1 5-.9 6.4 6.4 0 0 1 4.55 6.82v67.84c0 .15.43 5.51-2.71 7.44a4.72 4.72 0 0 1 -2.49.65zm-5.37-3.74c3.11 1.92 5.51 2.48 6.93 1.61 1.86-1.13 2-4.64 1.9-5.89v-68a4.76 4.76 0 0 0 -3.31-5 4.54 4.54 0 0 0 -3.54.68l-4.65 3c-4 2.53-8.19 5.16-12.12 8-1.78 1.19-3.64 2.36-5.5 3.54s-3.7 2.34-5.46 3.51a4.43 4.43 0 0 1 -2.43.44h-19.54a5.24 5.24 0 0 0 -5.77 3.56v34.19a4.16 4.16 0 0 0 3.21 3.06h1.39 20.31a3.68 3.68 0 0 1 2.48.57z"/><path d="m7.76 97.4a.87.87 0 0 1 -.64-1.4l84.48-92a.87.87 0 0 1 1.28 1.17l-84.48 91.95a.86.86 0 0 1 -.64.28z"/></g></svg>