<?xml version="1.0" encoding="utf-8"?>
<!-- Generator: Adobe Illustrator 22.0.1, SVG Export Plug-In . SVG Version: 6.00 Build 0)  -->
<svg version="1.1" id="Layer_1" xmlns="http://www.w3.org/2000/svg" xmlns:xlink="http://www.w3.org/1999/xlink" x="0px" y="0px"
	 viewBox="0 0 84.1 84.1" style="enable-background:new 0 0 84.1 84.1;" xml:space="preserve">
<style type="text/css">
	.st0{fill:#FFFFFF;}
</style>
<title>Artboard 4</title>
<path class="st0" d="M43.6,64.7h-4c-0.6,0-1,0.4-1,1s0.4,1,1,1h4c0.6,0,1-0.4,1-1S44.1,64.7,43.6,64.7z"/>
<path class="st0" d="M72.7,27.2c-0.3-0.8-1.3-3.3-13.1-0.5V16.6c0-0.2,0-0.4,0-0.6c0-0.1,0-0.1,0-0.2c0-0.2-0.1-0.3-0.1-0.5
	c-0.6-2.8-3.1-4.9-6-4.8H29.7c-2.9,0-5.4,2-6,4.9c-0.1,0.1-0.1,0.3-0.1,0.5c0,0.1,0,0.1,0,0.2c0,0.2,0,0.4,0,0.6v24
	c-7.4,4-15.6,9.2-14.2,12.6c0.2,0.5,0.7,1.8,4.5,1.8c2.5-0.1,4.9-0.4,7.3-1c0.8-0.2,1.6-0.4,2.5-0.6v11.5c0,3.4,2.8,6.1,6.1,6.1
	h23.8c3.4,0,6.1-2.7,6.1-6.1V39.1C67.4,34.9,73.9,30.2,72.7,27.2z M25.6,16.8h32V38c-4.8,2.5-9.7,4.8-14.7,6.8
	c-5.7,2.3-11.4,4.3-17.3,6L25.6,16.8z M29.7,12.5h23.8c1.6,0,3,0.9,3.7,2.3H26C26.7,13.4,28.1,12.5,29.7,12.5z M20.7,52.1
	c-7.2,1.5-9.3,0.8-9.5,0.4c-0.3-0.7,2.5-4.1,12.4-9.5v8.5C22.6,51.6,21.6,51.8,20.7,52.1L20.7,52.1z M53.5,69H29.7
	c-2.3,0-4.1-1.8-4.1-4.1v-3h32v3C57.6,67.1,55.7,69,53.5,69z M57.6,59.9h-32v-7c6.1-1.7,12.2-3.8,18.1-6.2c3.9-1.6,9.1-3.9,14-6.5
	L57.6,59.9z M59.6,36.8v-8.1c8.7-2.1,11.1-1.1,11.2-0.8C71.2,29,67.5,32.4,59.6,36.8L59.6,36.8z"/>
</svg>
