<?xml version="1.0" encoding="utf-8"?>
<!-- Generator: Adobe Illustrator 21.0.2, SVG Export Plug-In . SVG Version: 6.00 Build 0)  -->
<svg version="1.1" id="Layer_1" xmlns="http://www.w3.org/2000/svg" xmlns:xlink="http://www.w3.org/1999/xlink" x="0px" y="0px"
	 viewBox="0 0 63.6 60.5" style="enable-background:new 0 0 63.6 60.5;" xml:space="preserve">
<style type="text/css">
	.st0{fill:none;stroke:#0C2340;stroke-width:2;stroke-linecap:round;stroke-miterlimit:10;}
</style>
<path class="st0" d="M44.3,59.5H20.5c-2.8,0-5.1-2.3-5.1-5.1V6.1c0-2.8,2.3-5.1,5.1-5.1h23.8c2.8,0,5.1,2.3,5.1,5.1v48.3
	C49.4,57.2,47.1,59.5,44.3,59.5z"/>
<line class="st0" x1="15.4" y1="50.5" x2="49.4" y2="50.5"/>
<line class="st0" x1="15.4" y1="5.3" x2="49.4" y2="5.3"/>
<line class="st0" x1="30.4" y1="55.2" x2="34.4" y2="55.2"/>
<path class="st0" d="M49.4,17.5c7.4-1.8,12.4-2.1,13.1-0.4c1.3,3.1-11.5,11.2-28.5,18.1s-31.8,10.1-33,7.1c-0.9-2.1,5-6.7,14.3-11.6
	"/>
</svg>
