<?xml version="1.0" encoding="utf-8"?>
<!-- Generator: Adobe Illustrator 22.0.1, SVG Export Plug-In . SVG Version: 6.00 Build 0)  -->
<svg version="1.1" id="Layer_1" xmlns="http://www.w3.org/2000/svg" xmlns:xlink="http://www.w3.org/1999/xlink" x="0px" y="0px"
	 viewBox="0 0 84.1 84.1" style="enable-background:new 0 0 84.1 84.1;" xml:space="preserve">
<style type="text/css">
	.st0{fill:#FFFFFF;}
</style>
<title>Artboard 6</title>
<path class="st0" d="M42.5,72.1l-0.5-0.3C31.4,66,19.8,45.7,19.8,33.1c0-12.6,10.2-22.8,22.8-22.8s22.8,10.2,22.8,22.8
	C65.3,45.7,53.7,66,43,71.8L42.5,72.1z M42.5,12.3c-11.5,0-20.8,9.3-20.8,20.8c0,11.6,11,30.9,20.8,36.7
	c9.8-5.8,20.8-25.1,20.8-36.7C63.3,21.6,54,12.3,42.5,12.3z"/>
<path class="st0" d="M42.5,47.6c-7.5,0-13.5-6-13.5-13.5s6-13.5,13.5-13.5s13.5,6,13.5,13.5c0,0,0,0,0,0C56,41.5,50,47.6,42.5,47.6z
	 M42.5,22.6c-6.4,0-11.5,5.1-11.5,11.5s5.1,11.5,11.5,11.5S54,40.4,54,34.1l0,0C54,27.7,48.9,22.6,42.5,22.6L42.5,22.6z"/>
</svg>
