<?xml version="1.0" encoding="utf-8"?>
<!-- Generator: Adobe Illustrator 21.0.2, SVG Export Plug-In . SVG Version: 6.00 Build 0)  -->
<svg version="1.1" id="Layer_1" xmlns="http://www.w3.org/2000/svg" xmlns:xlink="http://www.w3.org/1999/xlink" x="0px" y="0px"
	 viewBox="0 0 27.8 27.8" style="enable-background:new 0 0 27.8 27.8;" xml:space="preserve">
<style type="text/css">
	.st0{fill:#0C2340;}
</style>
<g>
	<path class="st0" d="M13.9,0C6.2,0,0,6.2,0,13.9s6.2,13.9,13.9,13.9s13.9-6.2,13.9-13.9S21.5,0,13.9,0z M13.9,26.8
		C6.8,26.8,1,21,1,13.9S6.8,1,13.9,1s12.9,5.8,12.9,12.9S21,26.8,13.9,26.8z"/>
	<path class="st0" d="M20.6,13.4h-6.2V7.2c0-0.3-0.2-0.5-0.5-0.5S13.4,7,13.4,7.2v6.2H7.2c-0.3,0-0.5,0.2-0.5,0.5s0.2,0.5,0.5,0.5
		h6.2v6.2c0,0.3,0.2,0.5,0.5,0.5s0.5-0.2,0.5-0.5v-6.2h6.2c0.3,0,0.5-0.2,0.5-0.5S20.8,13.4,20.6,13.4z"/>
</g>
</svg>
