<svg viewBox="0 0 100 100" xmlns="http://www.w3.org/2000/svg"><path d="m48.47 95.55c-23.37 0-42.38-18.08-42.38-40.3a38.91 38.91 0 0 1 16.27-31.84.94.94 0 1 1 1.1 1.52 37 37 0 0 0 -15.46 30.32c0 21.19 18.13 38.43 40.47 38.43s40.53-17.24 40.53-38.43c.68-11.89-5-23.2-15.14-30.31a.93.93 0 0 1 1.07-1.53c10.69 7.48 16.65 19.4 15.94 31.89-.03 22.17-19.04 40.25-42.4 40.25z" fill="#07213f"/><path d="m49.07 43.9a.94.94 0 0 1 -.94-.94v-37.58a.94.94 0 0 1 1.87 0v37.62a.94.94 0 0 1 -.93.9z" fill="#04203d"/></svg>