<svg viewBox="0 0 100 100" xmlns="http://www.w3.org/2000/svg"><g fill="#06213e"><path d="m91.47 77.42h-22.23a5.24 5.24 0 0 1 -5.24-5.23v-44.38a5.24 5.24 0 0 1 5.23-5.23h22.24a5.24 5.24 0 0 1 5.23 5.23v44.38a5.24 5.24 0 0 1 -5.23 5.23zm-22.23-53.58a4 4 0 0 0 -4 4v44.35a4 4 0 0 0 4 4h22.23a4 4 0 0 0 4-4v-44.38a4 4 0 0 0 -4-4z"/><path d="m58.13 50.54h-2.82a.63.63 0 1 1 0-1.26h2.82a.63.63 0 0 1 0 1.26z"/><path d="m51.67 50.54h-2.82a.63.63 0 1 1 0-1.26h2.82a.63.63 0 0 1 0 1.26z"/><path d="m45.3 50.54h-2.82a.63.63 0 0 1 0-1.26h2.82a.63.63 0 0 1 0 1.26z"/></g><path d="m15 77.32a10.47 10.47 0 0 1 -3.21-.53c-3.31-1.07-5.37-3.64-6.13-7.64a6.51 6.51 0 0 1 -.12-1.37.63.63 0 0 1 1.26 0 4.69 4.69 0 0 0 .1 1.1c.67 3.56 2.4 5.75 5.28 6.68a8.33 8.33 0 0 0 8.89-2.2 15.59 15.59 0 0 0 4-6.79 37.56 37.56 0 0 1 5.58-10.94c1.31-1.83 2.42-3.51 3.39-5.13a17.72 17.72 0 0 0 2.43-10.09c-.27-6.5-4-13.9-11.43-14.81-2.1-.13-7.86-.48-9-.39-6.09.52-10 4.06-11.55 10.53a.62.62 0 0 1 -.76.46.63.63 0 0 1 -.46-.76c1.73-7.03 6.02-10.89 12.73-11.44 1.43-.13 8.87.37 9.18.39 7.07.85 12.23 7.44 12.58 16a19.08 19.08 0 0 1 -2.61 10.78c-1 1.65-2.11 3.36-3.44 5.23a36.3 36.3 0 0 0 -5.43 10.6 16.84 16.84 0 0 1 -4.28 7.3 9.83 9.83 0 0 1 -7 3.02z"/><path d="m15 65.09a4.46 4.46 0 0 1 -3.61-1.75 5.32 5.32 0 0 1 -.89-5.55 15.81 15.81 0 0 1 1.25-2.25l.35-.54c1.19-1.94 1-3-.67-4.3a7.43 7.43 0 0 1 -2.93-5.23 14.71 14.71 0 0 1 1.39-8.4c1.88-3.84 5.16-5.74 10-5.82l.83.11a18.85 18.85 0 0 1 2.71.53c3.97 1.11 6.24 3.8 6.57 7.68a20.89 20.89 0 0 1 -.19 4.43l-.1.84a.63.63 0 0 1 -1.26-.14l.11-.86a19.78 19.78 0 0 0 .22-4.19c-.31-3.37-2.23-5.59-5.68-6.59a17.2 17.2 0 0 0 -2.53-.49l-.76-.11c-4.28.08-7.11 1.71-8.79 5.12a13.49 13.49 0 0 0 -1.26 7.69 6.06 6.06 0 0 0 2.44 4.35c2.2 1.71 2.49 3.49 1 6l-.37.6a13.59 13.59 0 0 0 -1.15 2.05 4.06 4.06 0 0 0 .71 4.29 3.41 3.41 0 0 0 3.61 1.16c2.07-.45 3.23-2 4.32-4.09a.63.63 0 0 1 .85-.27.62.62 0 0 1 .27.84c-1.08 2.12-2.46 4.17-5.17 4.76a6.11 6.11 0 0 1 -1.27.13z"/><path d="m80.35 73.47a1.81 1.81 0 1 1 1.81-1.8 1.81 1.81 0 0 1 -1.81 1.8zm0-2.66a.86.86 0 1 0 .86.86.85.85 0 0 0 -.86-.86z" fill="#04203d"/></svg>