<svg viewBox="0 0 100 100" xmlns="http://www.w3.org/2000/svg"><g fill="#04203d"><path d="m34.15 72.12a21.84 21.84 0 1 1 21.85-21.84 21.86 21.86 0 0 1 -21.85 21.84zm0-42a20.17 20.17 0 1 0 20.16 20.16 20.19 20.19 0 0 0 -20.16-20.17z"/><path d="m34.15 59a8.68 8.68 0 1 1 8.67-8.67 8.68 8.68 0 0 1 -8.67 8.67zm0-15.68a7 7 0 1 0 7 7 7 7 0 0 0 -7-7.05z"/><path d="m86.54 76.81h-72.79a10.17 10.17 0 0 1 -10.16-10.16v-33.47a10.17 10.17 0 0 1 10.16-10.18h72.79a10.17 10.17 0 0 1 10.16 10.18v33.47a10.17 10.17 0 0 1 -10.16 10.16zm-72.79-52.12a8.5 8.5 0 0 0 -8.49 8.49v33.47a8.5 8.5 0 0 0 8.49 8.49h72.79a8.5 8.5 0 0 0 8.46-8.49v-33.47a8.5 8.5 0 0 0 -8.49-8.49z"/><path d="m87.15 43.27h-13.15a.83.83 0 0 1 -.83-.83v-13.16a.83.83 0 0 1 .83-.84h13.15a.83.83 0 0 1 .83.84v13.16a.83.83 0 0 1 -.83.83zm-12.33-1.67h11.49v-11.49h-11.49z"/><path d="m80.57 40.83a5 5 0 1 1 5-5 5 5 0 0 1 -5 5zm0-8.27a3.3 3.3 0 1 0 3.3 3.3 3.31 3.31 0 0 0 -3.3-3.3z"/><path d="m80.57 55.25a5 5 0 1 1 5-5 5 5 0 0 1 -5 5zm0-8.27a3.3 3.3 0 1 0 3.3 3.3 3.31 3.31 0 0 0 -3.3-3.28z"/></g></svg>