<svg width="100" height="100" viewBox="0 0 100 100" xmlns="http://www.w3.org/2000/svg"><g id="screen" stroke="none" stroke-width="1" fill="none" fill-rule="evenodd"><path d="M70.844 0c5.054.006 9.15 4.13 9.156 9.219V90.78c-.006 5.089-4.102 9.213-9.156 9.219H30.199a9.146 9.146 0 01-6.496-2.691A9.273 9.273 0 0121 90.78V9.22C21.012 4.129 25.11.006 30.167 0h40.677zm0 1.691H30.199c-4.126.006-7.47 3.373-7.476 7.528V90.78c.006 4.153 3.351 7.517 7.476 7.517h40.645c4.122-.006 7.465-3.366 7.476-7.517V9.22c-.005-4.155-3.35-7.522-7.476-7.528zm-16.46 85.097c2.113 0 3.826 1.724 3.826 3.851s-1.713 3.851-3.825 3.851h-7.856c-2.113 0-3.825-1.724-3.825-3.85 0-2.128 1.712-3.852 3.825-3.852h7.856zm0 1.702H46.53a2.178 2.178 0 00-1.793 2.15c0 1.06.756 1.966 1.793 2.149h7.856a2.178 2.178 0 001.793-2.15c0-1.06-.757-1.966-1.793-2.149zm17.659-69.078a.8.8 0 01.118 1.038l-.073.093-6.085 6.586a22.43 22.43 0 017.333 16.63c0 12.383-9.97 22.42-22.267 22.42-5.974 0-11.398-2.368-15.397-6.223l-6.084 6.587a.8.8 0 01-1.25-.993l.074-.093 6.147-6.653a22.423 22.423 0 01-5.757-15.044c0-12.383 9.969-22.42 22.267-22.42 5.172 0 9.933 1.775 13.713 4.754l6.13-6.637a.8.8 0 011.13-.045zm-7.222 8.995L36.853 58.678c3.69 3.565 8.699 5.756 14.216 5.756 11.34 0 20.533-9.256 20.533-20.674a20.684 20.684 0 00-6.78-15.353zM51.07 23.085c-11.34 0-20.534 9.256-20.534 20.675 0 5.284 1.97 10.106 5.21 13.76l27.85-30.143a20.355 20.355 0 00-12.526-4.292z" id="Combined-Shape" fill="#06213E" fill-rule="nonzero"/></g></svg>