<?xml version="1.0" encoding="utf-8"?>
<!-- Generator: Adobe Illustrator 21.0.2, SVG Export Plug-In . SVG Version: 6.00 Build 0)  -->
<svg version="1.1" id="Layer_1" xmlns="http://www.w3.org/2000/svg" xmlns:xlink="http://www.w3.org/1999/xlink" x="0px" y="0px"
	 viewBox="0 0 31.9 60.2" style="enable-background:new 0 0 31.9 60.2;" xml:space="preserve">
<style type="text/css">
	.st0{fill:#0C2340;}
</style>
<path class="st0" d="M13,22.5c1.5,0,2.8,1.3,2.8,2.8v6.4V34l1.7-1.4c0.3-0.2,0.7-0.5,1.4-0.5c1,0,1.9,0.7,2.1,1.8l0.3,1.7l1.3-1.1
	c0.3-0.2,0.7-0.5,1.3-0.5c1,0,1.8,0.7,2,1.6l0.4,1.6l1.2-1c0.3-0.2,0.7-0.5,1.3-0.5c1.2,0,2.1,0.9,2.1,2.1V38v5.5v3.3
	c0,3.1-2.6,11.3-2.9,12.2c0,0.1-0.1,0.2-0.3,0.2H11.5c-0.1,0-0.2-0.1-0.3-0.2c-0.4-0.8-1.7-3.6-2.3-4.6c-0.7-1.2-1.7-2.7-2.7-4.3
	l0-0.1c-1.4-2.1-3-4.6-4.4-7.1c-0.5-0.9-1.2-2.7,0-3.9c0.5-0.5,1.2-0.8,2-0.8c0.8,0,1.5,0.3,2,0.8l2.7,3.1l1.8,2v-2.7V25.3
	C10.2,23.8,11.5,22.5,13,22.5 M13,21.5c-2.1,0-3.8,1.7-3.8,3.8v16.2l-2.7-3.1c0,0,0,0-0.1-0.1c-0.7-0.7-1.7-1.1-2.7-1.1h0
	c-1,0-2,0.4-2.7,1.1c-1.3,1.3-1.3,3.1-0.2,5.1c1.5,2.6,3.1,5,4.5,7.2c1,1.6,2,3.1,2.7,4.3c0.6,1.1,2.3,4.5,2.3,4.6
	c0.2,0.4,0.7,0.7,1.2,0.7h16.3c0.6,0,1.1-0.4,1.2-0.9c0.3-0.9,3-9.3,3-12.5v-3.3V38v-0.3c0-1.7-1.4-3.1-3.1-3.1
	c-0.8,0-1.4,0.3-2,0.7c-0.3-1.4-1.6-2.4-3-2.4c-0.7,0-1.4,0.3-1.9,0.7c-0.3-1.5-1.5-2.6-3.1-2.6c-0.8,0-1.5,0.3-2,0.8v-6.4
	C16.8,23.2,15.1,21.5,13,21.5L13,21.5z"/>
<g>
	<path class="st0" d="M16,7.5l5.6,5.6c0.2,0.2,0.2,0.5,0,0.7s-0.5,0.2-0.7,0L16,8.9l-4.9,4.9c-0.2,0.2-0.5,0.2-0.7,0s-0.2-0.5,0-0.7
		L16,7.5z"/>
</g>
<g>
	<path class="st0" d="M16,0l5.6,5.6c0.2,0.2,0.2,0.5,0,0.7s-0.5,0.2-0.7,0L16,1.4l-4.9,4.9c-0.2,0.2-0.5,0.2-0.7,0s-0.2-0.5,0-0.7
		L16,0z"/>
</g>
</svg>
