<svg enable-background="new 0 0 500 500" viewBox="0 0 500 500" xmlns="http://www.w3.org/2000/svg"><path d="m184.7 112.3c.3-1.8 2.2-2.3 3.9-2.9 0 .7.1 1.3.1 2-1.2.3-2.6.6-4 .9z" fill="#eddfcc"/><path d="m65.5 449.8c-.1-2.9-.3-5.9-.3-8.8 0-95.2.2-190.5-.3-285.7-.1-12-.7-81.8.5-104.7 60.5 0 121 0 181.6-.1-4.1 17.5-8.3 35-12.4 52.3-12 50.6-23.8 101.3-35.9 151.8-7.1 30-14.6 60-21.7 90.1-1.5 6.6-13.9 56-16.3 69.2-2.3 12.1-5.6 23.9-8 35.8-29.2.2-58.2.2-87.2.1z" fill="#e4e7e7"/><path d="m234.6 102.9c4.1-17.5 8.3-35 12.4-52.3h50.5c-.9 10.2 1.2 301.3.3 396 0 1.1-.2 2.3-.3 3.4-48.4 0-96.6 0-145 0 1.4-12.4 70.1-296.4 82.1-347.1z" fill="#cbcfcd"/><path d="m297.6 50.6c-16.8 0-33.7 0-50.5 0-60.5 0-121 0-181.6.1-1.5-20 5.8-33.7 21.2-40.3 4.9-2.1 10.1-2.7 15.3-2.7 52.1 0 104.2.8 156.3-.3 23.1-.4 43 16.3 39.3 43.2zm-49.2-2.9c12.4 0 24.6-.1 37 .1 4.9.1 7.3-1.8 6.8-6.8-.7-7.1-2.6-13.7-7.5-19.3-7.6-8.6-17.4-10.1-28-9.5-2.7-2-5.7-1.3-8.6-1.3-44.2 0-88.4 0-132.5 0-6.8 0-13.6.2-20.3 1.2-14.3 2.3-24 13-24.7 27.5-.3 6 1.1 8.5 7.8 8.5 56.5-.4 113.3-.4 170-.4z" fill="#efeeef" stroke="#e5e6e6"/><path d="m187.8 112.3c2.9-.5 6-.4 8.6 1 2.9 1.6 4.8 3 1.6 6.7-3.9 4.4-3.4 9.8-.2 14.5 1.5 2.3 5.1 3.3 2.7 7.1-2.6 4-4.8 9.1-10.1 9.3-5.7.2-6.1-6.7-17.2.2-.8.5-2.2-.5-3.1-1-9.3-5.2-13.4-24.6-7.1-33.2 4.4-6 10.2-4.8 16.2-3.8 2 1.5 4 1 5.9-.3l-.2.1c.9 0 1.8-.3 2.9-.6z" fill="#cbcfcd"/><path d="m180.6 112.3c.3-4.2 1.4-8.1 5.2-10.5 1.2-.8 2.9-2.3 4.3-1.3 1.9 1.2.6 3.3 0 4.9-.5 1.5-7.9 6.9-9.5 6.9z" fill="#cbcfcd"/><path d="m180.9 112.1h4.6c-1.9 1.2-3.9 1.7-5.9.3.5-.2 1-.3 1.3-.3z" fill="#e4e7e7"/><path d="m149.9 454h133.9c8.4 0 9.9 2 7.9 10.4-3.2 13.3-15.1 22.4-29.7 22.5-39.1.1-78.3 0-117.5 0-.5-4.4 4.5-25.9 5.4-32.9z" fill="#cbcfcd"/><path d="m248.4 47.7c-56.7 0-113.3-.1-170.1.2-6.7 0-8.1-2.5-7.8-8.5.7-14.4 10.4-25.1 24.7-27.4 6.8-1 13.6-1.2 20.3-1.2h132.5c2.9 0 6-.8 8.6 1.3-2.9 11.9-6.5 23.6-8.2 35.6zm-139.9-34.1c-8.6 0-15.6 7-15.5 15.7 0 8.6 7.1 15.6 15.7 15.5 8.6 0 15.5-7 15.4-15.7s-6.8-15.5-15.6-15.5zm40.3 8.1c-3.8 1-7.1 3-7 7.6.1 4.5 2.9 7.3 7.3 7.3 4.5 0 7.3-2.9 7.3-7.3.2-4.5-2.8-6.7-7.6-7.6z" fill="#e4e7e7"/><path d="m248.4 47.7c1.7-12.1 5.3-23.8 8.3-35.6 10.6-.6 20.3 1 28 9.5 4.9 5.6 6.8 12.2 7.5 19.3.5 5-1.9 6.9-6.8 6.8-12.4-.1-24.8 0-37 0z" fill="#cbcfcd"/><path d="m108.5 13.6c8.7 0 15.5 6.7 15.6 15.5.1 8.6-6.7 15.7-15.4 15.7-8.6 0-15.7-6.9-15.7-15.5 0-8.5 7-15.7 15.5-15.7zm5.6 14.4c-.5-2.3-2.1-4.7-5.7-4.5-3.7.3-5.8 3-5.6 6.5.2 3.1 2.7 5.4 6.2 4.9 3.2-.4 5.4-2.4 5.1-6.9z" fill="#cbcfcd"/><path d="m148.8 21.7c4.7.8 7.7 3.1 7.7 7.6s-2.9 7.3-7.3 7.3-7.3-2.9-7.3-7.3c-.1-4.6 3.1-6.6 6.9-7.6z" fill="#efeeef"/><path d="m114.1 28c.2 4.7-1.9 6.6-5.1 7-3.4.5-5.9-1.8-6.2-4.9-.2-3.4 1.9-6.2 5.6-6.5 3.7-.4 5.3 2.1 5.7 4.4z" fill="#3a3a3b"/><path d="m151.8 449.4h145c2.1 25.7-12.7 42-38.3 42-51.7 0-103.3 0-155 0-26.2 0-40.8-15.8-38.9-42.1 29 .1 58.1.1 87.2.1zm-2.8 4.2c-23.9 0-47.8.1-71.7-.1-6.1-.1-8.5 2.4-7.5 8.2 1.6 9.6 6.3 17.5 15.3 21.3 11 4.8 38.1 3.8 58.5 3.5h117.5c14.6 0 26.5-9.2 29.7-22.5 2-8.4.6-10.4-7.9-10.4-44.7-.1-89.2 0-133.9 0z" fill="#efeeef" stroke="#e5e6e6"/><path d="m149.6 453.6c-.1 7-5.2 30-5.5 33.4-20.2 0-46 .9-58.7-3.6-8.9-3.7-13.8-11.9-15.4-21.7-1-5.9 1.4-8.4 7.6-8.3 24 .3 47.9.1 72 .2z" fill="#e4e7e7"/><path d="m202.1 326.9c0-42.4.4-84.8-.3-127.2-.2-11.7.3-89.7.5-96.1.2-7.5-1-49.7.1-63.4 1.5-18.1 16.1-31.7 34.2-31.7 54.4-.2 109-.2 163.4 0 20 .1 34.4 15.1 34.7 35.5.3 19.4 1.6 305.2.1 409.8-.4 24.5-14.3 38.7-38.7 38.7-51.8 0-103.5 0-155.2.1-24.4 0-38.9-14.3-38.9-38.6.1-42.3.1-84.7.1-127.1z" fill="#efeeef" stroke="#e5e6e6"/><path d="m418.8 66.1c-14.8.1-29.6.3-44.5.3-49.7 0-99.4.1-149.1-.1-6.4 0-8.7 1.3-8.7 8.3.2 116 .2 232 0 348.1 0 5.9 1.6 8 7.7 7.9 22.8-.2 45.6.1 68.4.1.7 10.6-3.8 20.4-5.2 30.8-.7 4.7-2.8 9.2-3.5 13.9-2.4 15-3.5 12.4-16 12.3-11.1-.1-22.2 1-33.3-1.2-15.7-3.2-27.8-17.2-28-33.3-.2-11.9 0-23.7 0-35.5 0-122.7.2-245.6-.2-368.3-.1-19.3 13.2-38.2 37.2-37.7 47.1.9 94.3.3 141.5.3 9.6 0 9.5.1 7.1 9-3.3 12.3-6.1 24.7-9.4 37-1.3 4.8.2 6.2 4.8 6.1 8-.2 16-.1 23.9 0 2.7-.4 5.5-.9 7.3 2zm-99.4-24.6h15.7c2.3 0 4.1-.5 4.2-3.3.2-3.2-1.8-3.8-4.4-3.7-10.3 0-20.4 0-30.7 0-2.5 0-4.7.4-4.6 3.6s2.3 3.5 4.8 3.5c5.1-.1 10.1-.1 15-.1zm-33.5-3.9c-.3-2.3-1.7-3.7-4-3.7-2.7 0-4.3 1.7-4.1 4.3s1.9 4.1 4.7 3.7c2.4-.3 3.4-1.9 3.4-4.3zm33.5-12c2 0 3.1-1 3.1-2.8.1-1.8-1.1-2.9-2.9-2.9-1.5 0-2.5.9-2.7 2.4-.2 2 .7 3 2.5 3.3z" fill="#fafbfb"/><g fill="#3a3a3b"><path d="m318.9 42.8c-5 0-10 0-15 0-2.5 0-4.7-.3-4.8-3.5s2.1-3.6 4.6-3.6h30.7c2.6 0 4.5.6 4.4 3.7-.1 2.9-1.9 3.3-4.2 3.3-5.3.1-10.5.1-15.7.1z"/><path d="m285.3 38.9c0 2.4-1 4-3.4 4.3-2.8.4-4.5-1.1-4.7-3.7-.2-2.7 1.4-4.3 4.1-4.3 2.3-.1 3.8 1.3 4 3.7z"/><path d="m318.8 26.8c-1.7-.3-2.7-1.3-2.5-3.1.2-1.5 1.2-2.4 2.7-2.4 1.8 0 3 1 2.9 2.9-.1 1.7-1.2 2.6-3.1 2.6z"/><path d="m418.2 60.6c2.4.7 4.1 2 3.9 4.8-.1 1.4 0 2.8 0 4.2v353c0 9.1 0 9.1-9.1 9.1-40.3.1-80.7.2-120.9.3-22.8-.1-45.6-.4-68.4-.2-6.1.1-7.7-2.1-7.7-8.1.2-118.2.2-236.4 0-354.6 0-7 2.4-8.5 8.7-8.4 49.6.3 99.3.3 149 .2 14.8-.1 29.6-.2 44.5-.3z"/></g><path d="m319 444.6c9.5 0 17.2 8 17.2 17.9s-7.7 18-17.2 18-17.2-8-17.2-18c0-9.9 7.7-17.9 17.2-17.9z" fill="#f6f7f7" stroke="#e5e6e6" stroke-width="2"/><path d="m285.6 39.8c.1 2.5-2 4.6-4.5 4.6-2.5.1-4.6-1.9-4.7-4.4s1.9-4.6 4.5-4.6c2.5 0 4.6 1.9 4.7 4.4z" fill="#0c0d0d"/><path d="m283.3 39.8c0 1.3-.8 2.2-2.1 2.3-1.4.1-2.4-.9-2.4-2.3 0-1.2 1-2.2 2.1-2.3 1.3 0 2.4 1 2.4 2.3z" fill="#bebebe"/><path d="m281.1 38.2c.9.1 1.4.7 1.5 1.5.1 1-.5 1.5-1.4 1.6-1 .1-1.8-.7-1.7-1.6 0-.7.8-1.5 1.6-1.5z" fill="#474747"/></svg>