<svg width="100" height="100" viewBox="0 0 100 100" xmlns="http://www.w3.org/2000/svg"><g id="sim-card" stroke="#0C2340" stroke-width="1.6" fill="none" fill-rule="evenodd" stroke-linecap="round"><path d="M24 1h31.669a9 9 0 016.385 2.658l20.331 20.468A9 9 0 0185 30.47V90a9 9 0 01-9 9H24a9 9 0 01-9-9V10a9 9 0 019-9z" id="Rectangle"/><path d="M39 47h23a9 9 0 019 9v20a9 9 0 01-9 9H39a9 9 0 01-9-9V56a9 9 0 019-9zm-9 13h14v12H30V60zm26 0h15v12H56V60zm14 0H56V47m0 38V72h14m-40 0h14v13" id="Combined-Shape"/></g></svg>