<?xml version="1.0" encoding="utf-8"?>
<!-- Generator: Adobe Illustrator 22.0.1, SVG Export Plug-In . SVG Version: 6.00 Build 0)  -->
<svg version="1.1" id="Layer_1" xmlns="http://www.w3.org/2000/svg" xmlns:xlink="http://www.w3.org/1999/xlink" x="0px" y="0px"
	 viewBox="0 0 84.1 84.1" style="enable-background:new 0 0 84.1 84.1;" xml:space="preserve">
<style type="text/css">
	.st0{fill:#FFFFFF;}
</style>
<title>Artboard 2v</title>
<path class="st0" d="M62.7,13.5h-3V9.5c0-0.6-0.4-1-1-1s-1,0.4-1,1v4.1h-33V9.5c0-0.6-0.4-1-1-1s-1,0.4-1,1v4.1h-3
	c-4.2,0-7.7,3.4-7.7,7.7v43c0,4.2,3.4,7.7,7.7,7.7h43c4.2,0,7.7-3.4,7.7-7.7v-43C70.4,17,66.9,13.5,62.7,13.5L62.7,13.5z M19.7,15.5
	h43c3.1,0,5.7,2.6,5.7,5.7v4.2H14v-4.2C14,18.1,16.5,15.5,19.7,15.5L19.7,15.5z M62.7,69.9h-43c-3.1,0-5.7-2.5-5.7-5.7V27.4h54.3
	v36.8C68.3,67.4,65.8,69.9,62.7,69.9z"/>
<polygon class="st0" points="19.9,45 22.1,45 22.1,51.5 24.5,51.5 24.5,45 26.7,45 26.7,43.1 19.9,43.1 "/>
<path class="st0" d="M33.8,43.5c-1.4-0.7-3-0.7-4.4,0c-0.7,0.4-1.2,0.9-1.6,1.5c-0.8,1.4-0.8,3.1,0,4.5c0.4,0.7,0.9,1.2,1.6,1.5
	c1.4,0.7,3,0.7,4.3,0c0.6-0.4,1.2-0.9,1.6-1.5c0.8-1.4,0.8-3.1,0-4.5C35,44.4,34.4,43.9,33.8,43.5z M33,48.8c-0.8,0.8-2,0.8-2.8,0
	c-0.4-0.4-0.5-1-0.5-1.6c0-0.6,0.2-1.1,0.5-1.6c0.4-0.4,0.9-0.6,1.4-0.6c0.5,0,1,0.2,1.4,0.6c0.4,0.4,0.5,1,0.5,1.6
	C33.5,47.8,33.4,48.4,33,48.8z"/>
<path class="st0" d="M42.7,43.6c-0.7-0.4-1.5-0.5-2.3-0.5h-3.4v8.5h3.4c0.8,0,1.6-0.2,2.3-0.5c0.6-0.4,1.2-0.9,1.5-1.5
	c0.4-0.7,0.6-1.4,0.5-2.2c0-0.8-0.2-1.5-0.5-2.2C43.8,44.5,43.3,43.9,42.7,43.6z M41.7,48.9c-0.4,0.4-1,0.6-1.6,0.6h-0.8v-4.3h0.8
	c0.6,0,1.2,0.2,1.6,0.6c0.4,0.4,0.6,1,0.6,1.6C42.4,47.9,42.1,48.5,41.7,48.9z"/>
<path class="st0" d="M48.3,43.1l-3.1,8.4h2.5l0.5-1.4h3l0.5,1.4H54l-3-8.4H48.3z M48.7,48.4l0.9-2.8l0.9,2.8H48.7z"/>
<polygon class="st0" points="58.3,46.3 56.8,43.1 54.2,43.1 57.1,48.8 57.1,51.5 59.5,51.5 59.5,48.8 62.5,43.1 59.8,43.1 "/>
</svg>
