<svg viewBox="0 0 100 100" xmlns="http://www.w3.org/2000/svg"><path d="m66 90.27h-33.51a7.56 7.56 0 0 1 -7.55-7.56v-66.78a7.55 7.55 0 0 1 7.55-7.55h33.51a7.56 7.56 0 0 1 7.55 7.55v66.78a7.56 7.56 0 0 1 -7.55 7.56zm-33.51-80.5a6.16 6.16 0 0 0 -6.16 6.16v66.78a6.17 6.17 0 0 0 6.16 6.17h33.51a6.17 6.17 0 0 0 6.16-6.17v-66.78a6.16 6.16 0 0 0 -6.16-6.16z" fill="#06213e"/><path d="m52.43 85.75h-6.43a3.15 3.15 0 1 1 0-6.3h6.48a3.15 3.15 0 1 1 0 6.3zm-6.43-4.91a1.76 1.76 0 0 0 0 3.52h6.48a1.76 1.76 0 1 0 0-3.52z" fill="#06213e"/><g fill="#04203d"><path d="m82.48 61.49a.7.7 0 0 1 0-1.39 10.78 10.78 0 0 0 0-21.56.7.7 0 0 1 0-1.39 12.17 12.17 0 0 1 0 24.34z"/><path d="m82.48 57.36a.7.7 0 0 1 0-1.39 6.65 6.65 0 0 0 0-13.3.7.7 0 0 1 0-1.39 8 8 0 0 1 0 16.08z"/><path d="m17.88 61.49c-7.2 0-13.06-5.46-13.06-12.17s5.86-12.17 13.06-12.17a.7.7 0 1 1 0 1.39c-6.43 0-11.67 4.83-11.67 10.78s5.24 10.78 11.67 10.78a.7.7 0 1 1 0 1.39z"/><path d="m17.88 57.36c-4.74 0-8.61-3.61-8.61-8s3.87-8 8.61-8a.7.7 0 1 1 0 1.39c-4 0-7.22 3-7.22 6.65s3.24 6.6 7.22 6.6a.7.7 0 1 1 0 1.39z"/></g></svg>