<svg viewBox="0 0 100 100" xmlns="http://www.w3.org/2000/svg"><g fill="#04203d"><path d="m10.46 64.35a.92.92 0 0 1 -.91-.92v-26.84a.92.92 0 1 1 1.83 0v26.84a.92.92 0 0 1 -.92.92z"/><path d="m29 64.35a.92.92 0 0 1 -.92-.92v-34.06a.92.92 0 0 1 1.84 0v34.06a.92.92 0 0 1 -.92.92z"/><path d="m50.18 64.35a.92.92 0 0 1 -.91-.92v-41a.92.92 0 0 1 1.83 0v41a.92.92 0 0 1 -.92.92z"/><path d="m71.84 64.35a.92.92 0 0 1 -.92-.92v-47.65a.92.92 0 1 1 1.83 0v47.65a.92.92 0 0 1 -.91.92z"/><path d="m92.63 64.35a.92.92 0 0 1 -.92-.92v-54.14a.92.92 0 0 1 1.84 0v54.14a.92.92 0 0 1 -.92.92z"/><path d="m24.84 84.52h-14.38a.92.92 0 0 1 0-1.83h14.38a.92.92 0 1 1 0 1.83z"/><path d="m93.06 84.43h-14.38a.92.92 0 0 1 0-1.83h14.38a.92.92 0 1 1 0 1.83z"/><path d="m86.05 91.63a.92.92 0 0 1 -.92-.92v-14.38a.92.92 0 1 1 1.83 0v14.38a.92.92 0 0 1 -.91.92z"/></g></svg>