<svg viewBox="0 0 100 100" xmlns="http://www.w3.org/2000/svg"><g fill="#06213e"><path d="m60.2 98.4h-21.41a7.32 7.32 0 0 1 -7.31-7.31v-45.85a7.33 7.33 0 0 1 7.31-7.32h21.41a7.33 7.33 0 0 1 7.31 7.32v45.85a7.32 7.32 0 0 1 -7.31 7.31zm-21.41-59.13a6 6 0 0 0 -6 6v45.82a6 6 0 0 0 6 6h21.41a6 6 0 0 0 6-6v-45.85a6 6 0 0 0 -6-6z"/><path d="m59.68 39.27a.67.67 0 0 1 -.68-.67v-3a3.53 3.53 0 0 0 -3.62-3.43h-11.77a3.53 3.53 0 0 0 -3.61 3.47v3a.68.68 0 0 1 -1.35 0v-3a4.89 4.89 0 0 1 5-4.78h11.73a4.89 4.89 0 0 1 5 4.78v3a.67.67 0 0 1 -.7.63z"/><path d="m54 81.54a.63.63 0 0 1 -.47-.2l-8.53-8.44a.68.68 0 0 1 0-1l7.79-7.79-8.23-8.21a.67.67 0 1 1 .95-.95l8.74 8.74a.68.68 0 0 1 0 1l-7.79 7.78 8 8a.68.68 0 0 1 0 1 .63.63 0 0 1 -.46.07z"/></g><g fill="#04203d"><path d="m73.13 27.5a.67.67 0 0 1 -.68-.67 23 23 0 1 0 -45.91 0 .68.68 0 0 1 -1.35 0 24.31 24.31 0 1 1 48.61 0 .67.67 0 0 1 -.67.67z"/><path d="m66.62 27.5a.67.67 0 0 1 -.67-.67 16.46 16.46 0 0 0 -32.91 0 .67.67 0 1 1 -1.34 0 17.8 17.8 0 1 1 35.59 0 .67.67 0 0 1 -.67.67z"/><path d="m60.45 27.5a.67.67 0 0 1 -.67-.67 10.29 10.29 0 1 0 -20.57 0 .68.68 0 0 1 -1.35 0 11.64 11.64 0 0 1 23.27 0 .67.67 0 0 1 -.68.67z"/></g></svg>